# Blender 3.3.1
# www.blender.org
o Cubo.004
v 0.575940 0.068200 0.548100
v 0.569704 0.064284 0.542225
v 0.575940 0.068200 -0.548100
v 0.569704 0.064284 -0.542011
v -0.520261 0.068201 0.548100
v -0.514532 0.064284 0.542225
v -0.566756 0.068201 -0.548100
v -0.560521 0.064284 -0.542011
v 0.575940 0.068200 -0.328860
v 0.549538 0.068200 -0.109620
v 0.575940 0.068200 0.109620
v 0.550969 0.068200 0.328860
v 0.545006 0.064284 0.325378
v 0.569704 0.064284 0.108531
v 0.543591 0.064284 -0.108316
v 0.569704 0.064284 -0.325164
v -0.458783 0.068201 0.328860
v -0.520261 0.068201 0.109620
v -0.500038 0.068201 -0.109620
v -0.566756 0.068201 -0.328860
v -0.560521 0.064284 -0.325164
v -0.494530 0.064284 -0.108316
v -0.514532 0.064284 0.108531
v -0.453726 0.064284 0.325378
v -0.281082 0.068201 -0.548100
v 0.004592 0.068200 -0.548100
v 0.290266 0.068200 -0.548100
v 0.287148 0.064284 -0.542011
v 0.004592 0.064284 -0.542011
v -0.277965 0.064284 -0.542011
v 0.301890 0.068200 0.486578
v 0.027840 0.068200 0.567741
v -0.246210 0.068200 0.534526
v -0.243473 0.064284 0.528799
v 0.027586 0.064284 0.561652
v 0.298645 0.064284 0.481374
v 0.287148 0.064284 -0.325164
v 0.004592 0.064284 -0.325164
v -0.277965 0.064284 -0.325164
v 0.303646 0.064284 -0.108316
v 0.037587 0.064284 -0.108316
v -0.228472 0.064284 -0.108316
v 0.298645 0.064284 0.108531
v 0.027586 0.064284 0.108531
v -0.243473 0.064284 0.108531
v 0.313847 0.064284 0.325378
v 0.057989 0.064284 0.325378
v -0.197868 0.064284 0.325378
v -0.281082 0.068201 -0.328860
v 0.004592 0.068200 -0.328860
v 0.290266 0.068200 -0.328860
v -0.231043 0.068200 -0.109620
v 0.037951 0.068200 -0.109620
v 0.306945 0.068200 -0.109620
v -0.246210 0.068200 0.109620
v 0.027840 0.068200 0.109620
v 0.301890 0.068200 0.109620
v -0.200102 0.068200 0.328860
v 0.058578 0.068200 0.328860
v 0.317259 0.068200 0.328860
vn 0.5319 -0.8468 -0.0000
vn -0.0000 -0.8410 -0.5410
vn -0.6797 -0.7083 -0.1906
vn -0.1463 -0.7444 0.6515
vn -0.0000 1.0000 -0.0000
vn -0.0000 -1.0000 -0.0000
vn -0.5319 -0.8468 -0.0000
vn -0.5981 -0.7805 0.1820
vn -0.5704 -0.8197 -0.0526
vn -0.5382 -0.8292 0.1509
vn 0.5742 -0.8161 -0.0654
vn 0.5234 -0.8500 0.0596
vn 0.5389 -0.8399 -0.0649
vn 0.5590 -0.8264 0.0673
vn 0.0284 -0.8187 0.5735
vn -0.0657 -0.8380 0.5417
vn 0.1569 -0.8336 0.5296
vt 0.663790 0.665157
vt 0.986534 0.665157
vt 0.827381 0.823292
vt 0.663790 0.981233
vt 0.342275 0.665157
vt 0.342275 0.981233
vt 0.827381 0.823292
vt 0.025098 0.665157
vt 0.663790 0.338818
vt 0.663790 0.011812
vt 0.827381 0.823292
vt 0.986534 0.338818
vt 0.342275 0.338818
vt 0.025098 0.338818
vt 0.342275 0.011812
vt 0.827381 0.823292
vt 0.405548 0.665157
vt 0.470081 0.665157
vt 0.534922 0.665157
vt 0.603208 0.665157
vt 0.827381 0.823292
vt 0.603208 0.981233
vt 0.827381 0.823292
vt 0.534922 0.981233
vt 0.827381 0.823292
vt 0.470081 0.981233
vt 0.827381 0.823292
vt 0.405548 0.981233
vt 0.603208 0.338818
vt 0.534922 0.338818
vt 0.470081 0.338818
vt 0.405548 0.338818
vt 0.405548 0.011812
vt 0.827381 0.823292
vt 0.470081 0.011812
vt 0.827381 0.823292
vt 0.534922 0.011812
vt 0.827381 0.823292
vt 0.603208 0.011812
vt 0.827381 0.823292
vt 0.342275 0.420403
vt 0.342275 0.501951
vt 0.342275 0.585092
vt 0.827381 0.823292
vt 0.025098 0.585092
vt 0.827381 0.823292
vt 0.025098 0.501951
vt 0.827381 0.823292
vt 0.025098 0.420403
vt 0.663790 0.585092
vt 0.663790 0.501951
vt 0.663790 0.420403
vt 0.827381 0.823292
vt 0.986534 0.420403
vt 0.827381 0.823292
vt 0.986534 0.501951
vt 0.827381 0.823292
vt 0.986534 0.585092
vt 0.827381 0.823292
vt 0.827381 0.823292
vt 0.827381 0.823292
vt 0.827381 0.823292
vt 0.827381 0.823292
vt 0.827381 0.823292
vt 0.827381 0.823292
vt 0.827381 0.823292
vt 0.827381 0.823292
vt 0.827381 0.823292
vt 0.827381 0.823292
vt 0.827381 0.823292
vt 0.405548 0.420403
vt 0.405548 0.501951
vt 0.405548 0.585092
vt 0.470081 0.420403
vt 0.470081 0.501951
vt 0.470081 0.585092
vt 0.534922 0.420403
vt 0.534922 0.501951
vt 0.534922 0.585092
vt 0.603208 0.420403
vt 0.603208 0.501951
vt 0.603208 0.585092
s 0
f 9/17/1 16/28/1 4/6/1 3/5/1
f 25/41/2 30/49/2 8/14/2 7/13/2
f 17/29/3 24/39/3 6/10/3 5/9/3
f 31/50/4 36/58/4 2/2/4 1/1/4
f 58/80/5 17/29/5 5/9/5 33/52/5
f 46/68/6 13/21/6 2/3/6 36/57/6
f 28/44/6 4/7/6 16/27/6 37/59/6
f 37/59/6 16/27/6 15/25/6 40/62/6
f 40/62/6 15/25/6 14/23/6 43/65/6
f 43/65/6 14/23/6 13/21/6 46/68/6
f 25/41/5 7/13/5 20/32/5 49/71/5
f 49/71/5 20/32/5 19/31/5 52/74/5
f 52/74/5 19/31/5 18/30/5 55/77/5
f 55/77/5 18/30/5 17/29/5 58/80/5
f 7/13/7 8/15/7 21/33/7 20/32/7
f 20/32/8 21/33/8 22/35/8 19/31/8
f 19/31/9 22/35/9 23/37/9 18/30/9
f 18/30/10 23/37/10 24/39/10 17/29/10
f 1/1/11 2/4/11 13/22/11 12/20/11
f 12/20/12 13/22/12 14/24/12 11/19/12
f 11/19/13 14/24/13 15/26/13 10/18/13
f 10/18/14 15/26/14 16/28/14 9/17/14
f 11/19/5 57/79/5 60/82/5 12/20/5
f 57/79/5 56/78/5 59/81/5 60/82/5
f 56/78/5 55/77/5 58/80/5 59/81/5
f 10/18/5 54/76/5 57/79/5 11/19/5
f 54/76/5 53/75/5 56/78/5 57/79/5
f 53/75/5 52/74/5 55/77/5 56/78/5
f 9/17/5 51/73/5 54/76/5 10/18/5
f 51/73/5 50/72/5 53/75/5 54/76/5
f 50/72/5 49/71/5 52/74/5 53/75/5
f 3/5/5 27/43/5 51/73/5 9/17/5
f 27/43/5 26/42/5 50/72/5 51/73/5
f 26/42/5 25/41/5 49/71/5 50/72/5
f 23/38/6 45/67/6 48/70/6 24/40/6
f 45/67/6 44/66/6 47/69/6 48/70/6
f 44/66/6 43/65/6 46/68/6 47/69/6
f 22/36/6 42/64/6 45/67/6 23/38/6
f 42/64/6 41/63/6 44/66/6 45/67/6
f 41/63/6 40/62/6 43/65/6 44/66/6
f 21/34/6 39/61/6 42/64/6 22/36/6
f 39/61/6 38/60/6 41/63/6 42/64/6
f 38/60/6 37/59/6 40/62/6 41/63/6
f 8/16/6 30/48/6 39/61/6 21/34/6
f 30/48/6 29/46/6 38/60/6 39/61/6
f 29/46/6 28/44/6 37/59/6 38/60/6
f 24/40/6 48/70/6 34/53/6 6/11/6
f 48/70/6 47/69/6 35/55/6 34/53/6
f 47/69/6 46/68/6 36/57/6 35/55/6
f 12/20/5 60/82/5 31/50/5 1/1/5
f 60/82/5 59/81/5 32/51/5 31/50/5
f 59/81/5 58/80/5 33/52/5 32/51/5
f 5/9/15 6/12/15 34/54/15 33/52/15
f 33/52/16 34/54/16 35/56/16 32/51/16
f 32/51/17 35/56/17 36/58/17 31/50/17
f 3/5/2 4/8/2 28/45/2 27/43/2
f 27/43/2 28/45/2 29/47/2 26/42/2
f 26/42/2 29/47/2 30/49/2 25/41/2
