# Blender 3.3.1
# www.blender.org
o Plano
v -0.494569 0.077343 -0.936152
v -0.328258 0.082690 -0.907212
v -0.525495 1.105833 -0.931060
v -0.206541 1.105833 -0.912321
v -0.486048 0.053737 -0.912048
v -0.465478 0.054469 -0.931333
v -0.444927 0.055209 -0.912046
v -0.424371 0.055953 -0.931336
v -0.403806 0.056706 -0.912042
v -0.383233 0.057466 -0.931341
v -0.362663 0.058194 -0.912040
v -0.342108 0.058937 -0.931341
v -0.232438 1.117246 -0.927937
v -0.270497 1.117247 -0.915444
v -0.308555 1.117247 -0.927937
v -0.346614 1.117247 -0.915444
v -0.384672 1.117247 -0.927937
v -0.422731 1.117247 -0.915444
v -0.460789 1.117247 -0.927937
v -0.498848 1.117246 -0.915444
v -0.451733 0.361622 -0.937917
v -0.452401 0.548296 -0.935376
v -0.315619 0.547967 -0.907993
v -0.333339 0.361759 -0.905439
v -0.436526 0.530004 -0.911424
v -0.437281 0.370122 -0.909516
v -0.421710 0.529978 -0.931956
v -0.424106 0.370038 -0.933863
v -0.406909 0.529958 -0.911423
v -0.410990 0.369974 -0.909515
v -0.392102 0.529937 -0.931958
v -0.397864 0.369935 -0.933867
v -0.377289 0.529917 -0.911420
v -0.384704 0.369928 -0.909509
v -0.362470 0.529897 -0.931962
v -0.371514 0.369926 -0.933877
v -0.347654 0.529849 -0.911418
v -0.358337 0.369845 -0.909506
v -0.345200 0.369784 -0.933874
v -0.332850 0.529812 -0.931961
v -0.419186 0.455499 -0.972664
v -0.464853 0.456118 -0.943703
v -0.453477 0.455976 -0.964658
v -0.464388 0.455745 -0.918982
v -0.422090 0.455118 -0.884031
v -0.454929 0.455592 -0.896844
v -0.424083 0.417770 -0.886527
v -0.466457 0.418429 -0.920791
v -0.456939 0.418255 -0.899340
v -0.467053 0.418136 -0.944145
v -0.421463 0.417550 -0.972408
v -0.455736 0.418015 -0.964401
v -0.302541 0.453819 -0.931669
v -0.345624 0.454458 -0.967210
v -0.312177 0.453975 -0.954181
v -0.347901 0.416508 -0.966954
v -0.304741 0.415837 -0.932111
v -0.314437 0.416014 -0.953925
v -0.307089 0.416172 -0.908975
v -0.351852 0.416747 -0.881172
v -0.318201 0.416290 -0.889053
v -0.349859 0.454095 -0.878676
v -0.305020 0.453488 -0.907167
v -0.316191 0.453627 -0.886557
v -0.505098 0.938039 -0.934989
v -0.481493 0.954311 -0.911716
v -0.260492 0.954311 -0.931664
v -0.237956 0.938039 -0.908392
v -0.449922 0.954315 -0.931664
v -0.418350 0.954319 -0.911716
v -0.386778 0.954321 -0.931664
v -0.355206 0.954321 -0.911716
v -0.323635 0.954319 -0.931664
v -0.292063 0.954315 -0.911716
v 0.134915 0.077343 -0.936152
v -0.031395 0.082690 -0.907212
v 0.165841 1.105833 -0.931060
v -0.153112 1.105833 -0.912321
v 0.126395 0.053737 -0.912048
v 0.105824 0.054469 -0.931333
v 0.085274 0.055209 -0.912046
v 0.064717 0.055953 -0.931336
v 0.044153 0.056706 -0.912042
v 0.023580 0.057466 -0.931341
v 0.003009 0.058194 -0.912040
v -0.017546 0.058937 -0.931341
v -0.127215 1.117246 -0.927937
v -0.089157 1.117247 -0.915444
v -0.051098 1.117247 -0.927937
v -0.013040 1.117247 -0.915444
v 0.025019 1.117247 -0.927937
v 0.063077 1.117247 -0.915444
v 0.101136 1.117247 -0.927937
v 0.139194 1.117246 -0.915444
v 0.092079 0.361622 -0.937917
v 0.092748 0.548296 -0.935376
v -0.044034 0.547967 -0.907993
v -0.026315 0.361759 -0.905439
v 0.076873 0.530004 -0.911424
v 0.077627 0.370122 -0.909516
v 0.062057 0.529978 -0.931956
v 0.064453 0.370038 -0.933863
v 0.047255 0.529958 -0.911423
v 0.051336 0.369974 -0.909515
v 0.032449 0.529937 -0.931958
v 0.038210 0.369935 -0.933867
v 0.017636 0.529917 -0.911420
v 0.025050 0.369928 -0.909509
v 0.002817 0.529897 -0.931962
v 0.011860 0.369926 -0.933877
v -0.011999 0.529849 -0.911418
v -0.001316 0.369845 -0.909506
v -0.014454 0.369784 -0.933874
v -0.026804 0.529812 -0.931961
v 0.059533 0.455499 -0.972664
v 0.105199 0.456118 -0.943703
v 0.093823 0.455976 -0.964658
v 0.104735 0.455745 -0.918982
v 0.062437 0.455118 -0.884031
v 0.095276 0.455592 -0.896844
v 0.064430 0.417770 -0.886527
v 0.106804 0.418429 -0.920791
v 0.097286 0.418255 -0.899340
v 0.107399 0.418136 -0.944145
v 0.061810 0.417550 -0.972408
v 0.096083 0.418015 -0.964401
v -0.057112 0.453819 -0.931669
v -0.014030 0.454458 -0.967210
v -0.047476 0.453975 -0.954181
v -0.011753 0.416508 -0.966954
v -0.054912 0.415837 -0.932111
v -0.045217 0.416014 -0.953925
v -0.052565 0.416172 -0.908975
v -0.007801 0.416747 -0.881172
v -0.041453 0.416290 -0.889053
v -0.009794 0.454095 -0.878676
v -0.054634 0.453488 -0.907167
v -0.043463 0.453627 -0.886557
v 0.145444 0.938039 -0.934989
v 0.121840 0.954311 -0.911716
v -0.099161 0.954311 -0.931664
v -0.121698 0.938039 -0.908392
v 0.090268 0.954315 -0.931664
v 0.058697 0.954319 -0.911716
v 0.027125 0.954321 -0.931664
v -0.004447 0.954321 -0.911716
v -0.036019 0.954319 -0.931664
v -0.067590 0.954315 -0.911716
vn -0.8968 -0.0119 0.4422
vn -0.5851 0.1057 0.8040
vn 0.7868 -0.1122 0.6069
vn -0.7889 0.0943 0.6072
vn 0.7900 -0.0759 0.6084
vn -0.7905 0.0575 0.6098
vn 0.7908 -0.0390 0.6108
vn -0.7913 0.0203 0.6111
vn 0.7918 -0.0016 0.6108
vn 0.4214 -0.0642 0.9046
vn -0.4218 0.0474 0.9054
vn 0.4221 -0.0307 0.9060
vn -0.4223 0.0139 0.9064
vn 0.4223 0.0029 0.9064
vn -0.4222 -0.0198 0.9063
vn -0.5871 -0.0675 0.8067
vn 0.4220 0.0366 0.9058
vn 0.8474 -0.0610 0.5274
vn -0.8474 0.0522 0.5283
vn 0.8477 -0.0436 0.5287
vn -0.8482 0.0349 0.5285
vn 0.8487 -0.0261 0.5282
vn -0.8490 0.0172 0.5281
vn 0.8485 -0.0084 0.5292
vn -0.8654 -0.0007 0.5012
vn -0.8780 0.0771 0.4725
vn -0.8928 0.1356 0.4296
vn -0.0747 -0.0625 0.9952
vn -0.9982 0.0559 0.0221
vn 0.9932 -0.0593 0.1006
vn -0.0144 -0.9999 0.0026
vn 0.0138 0.9999 0.0052
vn -0.8746 0.0525 -0.4819
vn -0.2273 0.0070 -0.9738
vn -0.9165 0.0271 0.3992
vn -0.3636 -0.0427 0.9306
vn 0.2263 -0.0770 0.9710
vn 0.8736 -0.0755 0.4808
vn 0.3624 -0.0280 -0.9316
vn 0.9152 -0.0528 -0.3995
vn 0.0738 -0.0112 -0.9972
vn 0.6565 0.0566 0.7522
vn -0.7659 -0.0920 0.6364
vn -0.6573 -0.0307 0.7530
vn 0.6576 0.0047 0.7534
vn -0.6574 0.0212 0.7532
vn 0.6568 -0.0471 0.7526
vn -0.6558 0.0729 0.7514
vn 0.6544 -0.0986 0.7497
vn -0.7602 0.1401 0.6344
vn 0.8968 -0.0119 0.4422
vn 0.5851 0.1057 0.8040
vn -0.7868 -0.1122 0.6069
vn 0.7889 0.0943 0.6072
vn -0.7900 -0.0759 0.6084
vn 0.7905 0.0575 0.6098
vn -0.7908 -0.0390 0.6108
vn 0.7913 0.0203 0.6111
vn -0.7918 -0.0016 0.6108
vn -0.4214 -0.0642 0.9046
vn 0.4218 0.0474 0.9054
vn -0.4221 -0.0307 0.9060
vn 0.4223 0.0139 0.9064
vn -0.4223 0.0029 0.9064
vn 0.4222 -0.0198 0.9063
vn 0.5871 -0.0675 0.8067
vn -0.4220 0.0366 0.9058
vn -0.8474 -0.0610 0.5274
vn 0.8474 0.0522 0.5283
vn -0.8477 -0.0436 0.5287
vn 0.8482 0.0349 0.5285
vn -0.8487 -0.0261 0.5282
vn 0.8490 0.0172 0.5281
vn -0.8485 -0.0084 0.5292
vn 0.8654 -0.0007 0.5012
vn 0.8780 0.0771 0.4725
vn 0.8928 0.1356 0.4296
vn 0.0747 -0.0625 0.9952
vn 0.9982 0.0559 0.0221
vn -0.9932 -0.0593 0.1006
vn 0.0144 -0.9999 0.0026
vn -0.0138 0.9999 0.0052
vn 0.8746 0.0525 -0.4819
vn 0.2273 0.0070 -0.9738
vn 0.9165 0.0271 0.3992
vn 0.3636 -0.0427 0.9306
vn -0.2263 -0.0770 0.9710
vn -0.8736 -0.0755 0.4808
vn -0.3624 -0.0280 -0.9316
vn -0.9152 -0.0528 -0.3995
vn -0.0738 -0.0112 -0.9972
vn -0.6565 0.0566 0.7522
vn 0.7659 -0.0920 0.6364
vn 0.6573 -0.0307 0.7530
vn -0.6576 0.0047 0.7534
vn 0.6574 0.0212 0.7532
vn -0.6568 -0.0471 0.7526
vn 0.6558 0.0729 0.7514
vn -0.6544 -0.0986 0.7497
vn 0.7602 0.1401 0.6344
vt 0.523438 0.546875
vt 0.523438 0.664062
vt 0.015625 0.546875
vt 0.015625 0.664062
vt 0.523438 0.554688
vt 0.523438 0.570312
vt 0.523438 0.585938
vt 0.523438 0.593750
vt 0.523438 0.609375
vt 0.523438 0.625000
vt 0.523438 0.632812
vt 0.523438 0.648438
vt 0.015625 0.648438
vt 0.015625 0.632812
vt 0.015625 0.625000
vt 0.015625 0.609375
vt 0.015625 0.593750
vt 0.015625 0.585938
vt 0.015625 0.570312
vt 0.015625 0.554688
vt 0.375000 0.546875
vt 0.296875 0.546875
vt 0.296875 0.664062
vt 0.375000 0.664062
vt 0.296875 0.554688
vt 0.375000 0.554688
vt 0.296875 0.570312
vt 0.375000 0.570312
vt 0.296875 0.585938
vt 0.375000 0.585938
vt 0.296875 0.593750
vt 0.375000 0.593750
vt 0.296875 0.609375
vt 0.375000 0.609375
vt 0.296875 0.625000
vt 0.375000 0.625000
vt 0.296875 0.632812
vt 0.375000 0.632812
vt 0.375000 0.648438
vt 0.296875 0.648438
vt 0.578664 0.395243
vt 0.556537 0.351770
vt 0.610291 0.418747
vt 0.513743 0.351770
vt 0.603152 0.402907
vt 0.530884 0.351770
vt 0.608617 0.436687
vt 0.496223 0.351770
vt 0.575995 0.459806
vt 0.453208 0.351770
vt 0.600551 0.452264
vt 0.478901 0.351770
vt 0.391589 0.457790
vt 0.453208 0.383056
vt 0.358949 0.435175
vt 0.496223 0.383056
vt 0.367022 0.450250
vt 0.478901 0.383056
vt 0.357260 0.418235
vt 0.513743 0.383056
vt 0.388869 0.395243
vt 0.556537 0.383056
vt 0.364393 0.402907
vt 0.530884 0.383056
vt 0.491685 0.418747
vt 0.340938 0.351770
vt 0.524910 0.395243
vt 0.297156 0.351770
vt 0.610291 0.351770
vt 0.499901 0.402907
vt 0.323319 0.351770
vt 0.442623 0.395243
vt 0.297156 0.383056
vt 0.610291 0.383056
vt 0.475866 0.418235
vt 0.340938 0.383056
vt 0.467644 0.402907
vt 0.323319 0.383056
vt 0.475403 0.435175
vt 0.358384 0.383056
vt 0.444370 0.457790
vt 0.400428 0.383056
vt 0.468401 0.450250
vt 0.375235 0.383056
vt 0.523215 0.459806
vt 0.400428 0.351770
vt 0.492163 0.436687
vt 0.358384 0.351770
vt 0.499171 0.452264
vt 0.375235 0.351770
vt 0.093750 0.546875
vt 0.093750 0.554688
vt 0.093750 0.648438
vt 0.093750 0.664062
vt 0.093750 0.570312
vt 0.093750 0.585938
vt 0.093750 0.593750
vt 0.093750 0.609375
vt 0.093750 0.625000
vt 0.093750 0.632812
vt 0.523438 0.546875
vt 0.523438 0.664062
vt 0.015625 0.546875
vt 0.015625 0.664062
vt 0.523438 0.554688
vt 0.523438 0.570312
vt 0.523438 0.585938
vt 0.523438 0.593750
vt 0.523438 0.609375
vt 0.523438 0.625000
vt 0.523438 0.632812
vt 0.523438 0.648438
vt 0.015625 0.648438
vt 0.015625 0.632812
vt 0.015625 0.625000
vt 0.015625 0.609375
vt 0.015625 0.593750
vt 0.015625 0.585938
vt 0.015625 0.570312
vt 0.015625 0.554688
vt 0.375000 0.546875
vt 0.296875 0.546875
vt 0.296875 0.664062
vt 0.375000 0.664062
vt 0.296875 0.554688
vt 0.375000 0.554688
vt 0.296875 0.570312
vt 0.375000 0.570312
vt 0.296875 0.585938
vt 0.375000 0.585938
vt 0.296875 0.593750
vt 0.375000 0.593750
vt 0.296875 0.609375
vt 0.375000 0.609375
vt 0.296875 0.625000
vt 0.375000 0.625000
vt 0.296875 0.632812
vt 0.375000 0.632812
vt 0.375000 0.648438
vt 0.296875 0.648438
vt 0.578664 0.395243
vt 0.556537 0.351770
vt 0.610291 0.418747
vt 0.513743 0.351770
vt 0.603152 0.402907
vt 0.530884 0.351770
vt 0.608617 0.436687
vt 0.496223 0.351770
vt 0.575995 0.459806
vt 0.453208 0.351770
vt 0.600551 0.452264
vt 0.478901 0.351770
vt 0.391589 0.457790
vt 0.453208 0.383056
vt 0.358949 0.435175
vt 0.496223 0.383056
vt 0.367022 0.450250
vt 0.478901 0.383056
vt 0.357260 0.418235
vt 0.513743 0.383056
vt 0.388869 0.395243
vt 0.556537 0.383056
vt 0.364393 0.402907
vt 0.530884 0.383056
vt 0.491685 0.418747
vt 0.340938 0.351770
vt 0.524910 0.395243
vt 0.297156 0.351770
vt 0.610291 0.351770
vt 0.499901 0.402907
vt 0.323319 0.351770
vt 0.442623 0.395243
vt 0.297156 0.383056
vt 0.610291 0.383056
vt 0.475866 0.418235
vt 0.340938 0.383056
vt 0.467644 0.402907
vt 0.323319 0.383056
vt 0.475403 0.435175
vt 0.358384 0.383056
vt 0.444370 0.457790
vt 0.400428 0.383056
vt 0.468401 0.450250
vt 0.375235 0.383056
vt 0.523215 0.459806
vt 0.400428 0.351770
vt 0.492163 0.436687
vt 0.358384 0.351770
vt 0.499171 0.452264
vt 0.375235 0.351770
vt 0.093750 0.546875
vt 0.093750 0.554688
vt 0.093750 0.648438
vt 0.093750 0.664062
vt 0.093750 0.570312
vt 0.093750 0.585938
vt 0.093750 0.593750
vt 0.093750 0.609375
vt 0.093750 0.625000
vt 0.093750 0.632812
s 0
f 12/12/1 2/2/1 24/24/1 39/39/1
f 67/93/2 68/94/2 4/4/2 13/13/2
f 5/5/3 6/6/3 28/28/3 26/26/3
f 6/6/4 7/7/4 30/30/4 28/28/4
f 7/7/5 8/8/5 32/32/5 30/30/5
f 8/8/6 9/9/6 34/34/6 32/32/6
f 9/9/7 10/10/7 36/36/7 34/34/7
f 10/10/8 11/11/8 38/38/8 36/36/8
f 11/11/9 12/12/9 39/39/9 38/38/9
f 74/100/10 67/93/10 13/13/10 14/14/10
f 73/99/11 74/100/11 14/14/11 15/15/11
f 72/98/12 73/99/12 15/15/12 16/16/12
f 71/97/13 72/98/13 16/16/13 17/17/13
f 70/96/14 71/97/14 17/17/14 18/18/14
f 69/95/15 70/96/15 18/18/15 19/19/15
f 65/91/16 66/92/16 20/20/16 3/3/16
f 66/92/17 69/95/17 19/19/17 20/20/17
f 40/40/18 37/37/18 38/38/18 39/39/18
f 37/37/19 35/35/19 36/36/19 38/38/19
f 35/35/20 33/33/20 34/34/20 36/36/20
f 33/33/21 31/31/21 32/32/21 34/34/21
f 31/31/22 29/29/22 30/30/22 32/32/22
f 29/29/23 27/27/23 28/28/23 30/30/23
f 27/27/24 25/25/24 26/26/24 28/28/24
f 25/25/25 22/22/25 21/21/25 26/26/25
f 23/23/26 40/40/26 39/39/26 24/24/26
f 1/1/27 5/5/27 26/26/27 21/21/27
f 60/82/28 62/86/28 45/50/28 47/54/28
f 44/48/29 42/44/29 50/60/29 48/56/29
f 63/88/30 59/80/30 57/76/30 53/66/30
f 56/72/31 58/77/31 57/75/31 59/79/31 61/83/31 60/81/31 47/53/31 49/57/31 48/55/31 50/59/31 52/63/31 51/61/31
f 62/85/32 64/89/32 63/87/32 53/65/32 55/70/32 54/67/32 41/41/32 43/45/32 42/43/32 44/47/32 46/51/32 45/49/32
f 50/60/33 42/44/33 43/46/33 52/64/33
f 52/64/34 43/46/34 41/42/34 51/62/34
f 44/48/35 48/56/35 49/58/35 46/52/35
f 46/52/36 49/58/36 47/54/36 45/50/36
f 62/86/37 60/82/37 61/84/37 64/90/37
f 64/90/38 61/84/38 59/80/38 63/88/38
f 56/73/39 54/68/39 55/71/39 58/78/39
f 58/78/40 55/71/40 53/66/40 57/76/40
f 54/69/41 56/74/41 51/62/41 41/42/41
f 25/25/42 27/27/42 69/95/42 66/92/42
f 22/22/43 25/25/43 66/92/43 65/91/43
f 27/27/44 29/29/44 70/96/44 69/95/44
f 29/29/45 31/31/45 71/97/45 70/96/45
f 31/31/46 33/33/46 72/98/46 71/97/46
f 33/33/47 35/35/47 73/99/47 72/98/47
f 35/35/48 37/37/48 74/100/48 73/99/48
f 37/37/49 40/40/49 67/93/49 74/100/49
f 40/40/50 23/23/50 68/94/50 67/93/50
f 86/112/51 113/139/51 98/124/51 76/102/51
f 141/193/52 87/113/52 78/104/52 142/194/52
f 79/105/53 100/126/53 102/128/53 80/106/53
f 80/106/54 102/128/54 104/130/54 81/107/54
f 81/107/55 104/130/55 106/132/55 82/108/55
f 82/108/56 106/132/56 108/134/56 83/109/56
f 83/109/57 108/134/57 110/136/57 84/110/57
f 84/110/58 110/136/58 112/138/58 85/111/58
f 85/111/59 112/138/59 113/139/59 86/112/59
f 148/200/60 88/114/60 87/113/60 141/193/60
f 147/199/61 89/115/61 88/114/61 148/200/61
f 146/198/62 90/116/62 89/115/62 147/199/62
f 145/197/63 91/117/63 90/116/63 146/198/63
f 144/196/64 92/118/64 91/117/64 145/197/64
f 143/195/65 93/119/65 92/118/65 144/196/65
f 139/191/66 77/103/66 94/120/66 140/192/66
f 140/192/67 94/120/67 93/119/67 143/195/67
f 114/140/68 113/139/68 112/138/68 111/137/68
f 111/137/69 112/138/69 110/136/69 109/135/69
f 109/135/70 110/136/70 108/134/70 107/133/70
f 107/133/71 108/134/71 106/132/71 105/131/71
f 105/131/72 106/132/72 104/130/72 103/129/72
f 103/129/73 104/130/73 102/128/73 101/127/73
f 101/127/74 102/128/74 100/126/74 99/125/74
f 99/125/75 100/126/75 95/121/75 96/122/75
f 97/123/76 98/124/76 113/139/76 114/140/76
f 75/101/77 95/121/77 100/126/77 79/105/77
f 134/182/78 121/154/78 119/150/78 136/186/78
f 118/148/79 122/156/79 124/160/79 116/144/79
f 137/188/80 127/166/80 131/176/80 133/180/80
f 130/172/81 125/161/81 126/163/81 124/159/81 122/155/81 123/157/81 121/153/81 134/181/81 135/183/81 133/179/81 131/175/81 132/177/81
f 136/185/82 119/149/82 120/151/82 118/147/82 116/143/82 117/145/82 115/141/82 128/167/82 129/170/82 127/165/82 137/187/82 138/189/82
f 124/160/83 126/164/83 117/146/83 116/144/83
f 126/164/84 125/162/84 115/142/84 117/146/84
f 118/148/85 120/152/85 123/158/85 122/156/85
f 120/152/86 119/150/86 121/154/86 123/158/86
f 136/186/87 138/190/87 135/184/87 134/182/87
f 138/190/88 137/188/88 133/180/88 135/184/88
f 130/173/89 132/178/89 129/171/89 128/168/89
f 132/178/90 131/176/90 127/166/90 129/171/90
f 128/169/91 115/142/91 125/162/91 130/174/91
f 99/125/92 140/192/92 143/195/92 101/127/92
f 96/122/93 139/191/93 140/192/93 99/125/93
f 101/127/94 143/195/94 144/196/94 103/129/94
f 103/129/95 144/196/95 145/197/95 105/131/95
f 105/131/96 145/197/96 146/198/96 107/133/96
f 107/133/97 146/198/97 147/199/97 109/135/97
f 109/135/98 147/199/98 148/200/98 111/137/98
f 111/137/99 148/200/99 141/193/99 114/140/99
f 114/140/100 141/193/100 142/194/100 97/123/100
