# Blender 3.3.1
# www.blender.org
o Cubo.003
v -0.897217 0.332078 -0.383404
v -0.897217 0.379499 -0.383404
v -0.897217 0.332078 -0.622131
v -0.897217 0.379499 -0.622131
v -0.678228 0.332078 -0.383404
v -0.678228 0.379499 -0.383404
v -0.678228 0.332078 -0.622131
v -0.678228 0.379499 -0.622131
v -0.893062 0.332078 -0.585793
v -0.893062 0.332078 -0.617438
v -0.860531 0.332078 -0.585793
v -0.860531 0.332078 -0.617438
v -0.886124 0.056065 -0.610689
v -0.886124 0.056065 -0.592543
v -0.867469 0.056065 -0.610689
v -0.867469 0.056065 -0.592543
v -0.682382 0.332078 -0.585793
v -0.682382 0.332078 -0.617438
v -0.714914 0.332078 -0.585793
v -0.714914 0.332078 -0.617438
v -0.689321 0.056065 -0.610689
v -0.689321 0.056065 -0.592543
v -0.707976 0.056065 -0.610689
v -0.707976 0.056065 -0.592543
v -0.893062 0.332078 -0.415252
v -0.893062 0.332078 -0.383607
v -0.860531 0.332078 -0.415252
v -0.860531 0.332078 -0.383607
v -0.886124 0.056065 -0.390356
v -0.886124 0.056065 -0.408502
v -0.867469 0.056065 -0.390356
v -0.867469 0.056065 -0.408502
v -0.682382 0.332078 -0.415252
v -0.682382 0.332078 -0.383607
v -0.714914 0.332078 -0.415252
v -0.714914 0.332078 -0.383607
v -0.689321 0.056065 -0.390356
v -0.689321 0.056065 -0.408502
v -0.707976 0.056065 -0.390356
v -0.707976 0.056065 -0.408502
vn -1.0000 -0.0000 -0.0000
vn -0.0000 -0.0000 -1.0000
vn 1.0000 -0.0000 -0.0000
vn -0.0000 -0.0000 1.0000
vn -0.0000 -1.0000 -0.0000
vn -0.0000 1.0000 -0.0000
vn -0.0000 -0.0244 0.9997
vn -0.0000 -0.0244 -0.9997
vn 0.9997 -0.0251 -0.0000
vn -0.9997 -0.0251 -0.0000
vt 0.016061 0.941082
vt 0.262034 0.941082
vt 0.222374 0.655242
vt 0.016061 0.879589
vt 0.262034 0.879589
vt 0.020325 0.655242
vt 0.262034 0.941082
vt 0.016061 0.941082
vt 0.222374 0.866076
vt 0.262034 0.879589
vt 0.016061 0.879589
vt 0.020325 0.866076
vt 0.262034 0.941082
vt 0.016061 0.941082
vt 0.020325 0.655242
vt 0.262034 0.879589
vt 0.016061 0.879589
vt 0.222374 0.655242
vt 0.262034 0.941082
vt 0.016061 0.941082
vt 0.020325 0.866076
vt 0.262034 0.879589
vt 0.016061 0.879589
vt 0.222374 0.866076
vt 0.336995 0.977313
vt 0.279410 0.983391
vt 0.279411 0.952684
vt 0.336995 0.939351
vt 0.279410 0.952260
vt 0.279411 0.982967
vt 0.297969 0.977313
vt 0.279410 0.952260
vt 0.279411 0.982967
vt 0.297969 0.939351
vt 0.279410 0.983391
vt 0.279411 0.952684
vt 0.306292 0.947448
vt 0.015119 0.952260
vt 0.015118 0.982967
vt 0.306292 0.969217
vt 0.015120 0.983391
vt 0.015118 0.952684
vt 0.328671 0.947448
vt 0.015119 0.983391
vt 0.015118 0.952684
vt 0.328671 0.969217
vt 0.015120 0.952260
vt 0.015118 0.982967
vt 0.298501 0.938819
vt 0.279410 0.952260
vt 0.279411 0.982967
vt 0.336463 0.938819
vt 0.279410 0.983391
vt 0.279411 0.952684
vt 0.298501 0.977845
vt 0.279410 0.983391
vt 0.279411 0.952684
vt 0.336463 0.977845
vt 0.279410 0.952260
vt 0.279411 0.982967
vt 0.306292 0.969217
vt 0.015120 0.983391
vt 0.015118 0.952684
vt 0.306292 0.947448
vt 0.015120 0.952260
vt 0.015118 0.982967
vt 0.328671 0.969217
vt 0.015120 0.952260
vt 0.015118 0.982967
vt 0.328671 0.947448
vt 0.015120 0.983391
vt 0.015118 0.952684
vt 0.336995 0.939351
vt 0.279410 0.952260
vt 0.279411 0.982967
vt 0.336995 0.977313
vt 0.279410 0.983391
vt 0.279411 0.952685
vt 0.297969 0.939351
vt 0.279410 0.983391
vt 0.279411 0.952685
vt 0.297969 0.977313
vt 0.279410 0.952260
vt 0.279411 0.982967
vt 0.328671 0.947448
vt 0.015120 0.983391
vt 0.015118 0.952685
vt 0.328671 0.969217
vt 0.015120 0.952260
vt 0.015118 0.982967
vt 0.306292 0.947448
vt 0.015120 0.952260
vt 0.015118 0.982967
vt 0.306292 0.969217
vt 0.015120 0.983391
vt 0.015118 0.952685
vt 0.298501 0.977845
vt 0.279410 0.983391
vt 0.279411 0.952685
vt 0.336463 0.977845
vt 0.279410 0.952260
vt 0.279411 0.982967
vt 0.298501 0.938819
vt 0.279410 0.952260
vt 0.279411 0.982967
vt 0.336463 0.938819
vt 0.279410 0.983391
vt 0.279411 0.952684
vt 0.306597 0.969522
vt 0.015119 0.952260
vt 0.015118 0.982967
vt 0.328366 0.969522
vt 0.015120 0.983391
vt 0.015118 0.952685
vt 0.306597 0.947143
vt 0.015119 0.983391
vt 0.015118 0.952684
vt 0.328366 0.947143
vt 0.015120 0.952260
vt 0.015118 0.982967
s 0
f 1/1/1 2/4/1 4/10/1 3/7/1
f 3/8/2 4/11/2 8/22/2 7/19/2
f 7/20/3 8/23/3 6/16/3 5/13/3
f 5/14/4 6/17/4 2/5/4 1/2/4
f 3/9/5 7/21/5 5/15/5 1/3/5
f 8/24/6 4/12/6 2/6/6 6/18/6
f 10/28/6 9/25/6 11/31/6 12/34/6
f 13/37/5 15/43/5 16/46/5 14/40/5
f 11/32/7 9/26/7 14/41/7 16/47/7
f 10/29/8 12/35/8 15/44/8 13/38/8
f 12/36/9 11/33/9 16/48/9 15/45/9
f 9/27/10 10/30/10 13/39/10 14/42/10
f 18/52/6 20/58/6 19/55/6 17/49/6
f 21/61/5 22/64/5 24/70/5 23/67/5
f 19/56/7 24/71/7 22/65/7 17/50/7
f 18/53/8 21/62/8 23/68/8 20/59/8
f 20/60/10 23/69/10 24/72/10 19/57/10
f 17/51/9 22/66/9 21/63/9 18/54/9
f 26/76/6 28/82/6 27/79/6 25/73/6
f 29/85/5 30/88/5 32/94/5 31/91/5
f 27/80/8 32/95/8 30/89/8 25/74/8
f 26/77/7 29/86/7 31/92/7 28/83/7
f 28/84/9 31/93/9 32/96/9 27/81/9
f 25/75/10 30/90/10 29/87/10 26/78/10
f 34/100/6 33/97/6 35/103/6 36/106/6
f 37/109/5 39/115/5 40/118/5 38/112/5
f 35/104/8 33/98/8 38/113/8 40/119/8
f 34/101/7 36/107/7 39/116/7 37/110/7
f 36/108/10 35/105/10 40/120/10 39/117/10
f 33/99/9 34/102/9 37/111/9 38/114/9
o Cilindro
v -0.783592 0.377515 -0.499060
v -0.783592 0.489576 -0.537747
v -0.756237 0.489576 -0.526416
v -0.744906 0.489576 -0.499060
v -0.756237 0.489576 -0.471705
v -0.783592 0.489576 -0.460374
v -0.810948 0.489576 -0.471705
v -0.822279 0.489576 -0.499060
v -0.810948 0.489576 -0.526416
v -0.783592 0.470262 -0.557465
v -0.783592 0.402826 -0.544264
v -0.783592 0.435302 -0.554145
v -0.751629 0.402826 -0.531024
v -0.742294 0.470262 -0.540359
v -0.744642 0.435302 -0.538011
v -0.738389 0.402826 -0.499060
v -0.725188 0.470262 -0.499060
v -0.728508 0.435302 -0.499060
v -0.751629 0.402826 -0.467097
v -0.742294 0.470262 -0.457762
v -0.744642 0.435302 -0.460109
v -0.783592 0.402826 -0.453857
v -0.783592 0.470262 -0.440655
v -0.783592 0.435302 -0.443975
v -0.815556 0.402826 -0.467097
v -0.824891 0.470262 -0.457762
v -0.822543 0.435302 -0.460109
v -0.828796 0.402826 -0.499060
v -0.841997 0.470262 -0.499060
v -0.838677 0.435302 -0.499060
v -0.815556 0.402826 -0.531024
v -0.824891 0.470262 -0.540359
v -0.822543 0.435302 -0.538011
v -0.743973 0.489576 -0.538680
v -0.783592 0.489576 -0.555091
v -0.727562 0.489576 -0.499060
v -0.743973 0.489576 -0.459441
v -0.783592 0.489576 -0.443030
v -0.823212 0.489576 -0.459441
v -0.839623 0.489576 -0.499060
v -0.823212 0.489576 -0.538680
v -0.756237 0.446842 -0.526416
v -0.783592 0.446842 -0.537747
v -0.744906 0.446842 -0.499060
v -0.756237 0.446842 -0.471705
v -0.783592 0.446842 -0.460374
v -0.810948 0.446842 -0.471705
v -0.822279 0.446842 -0.499060
v -0.810948 0.446842 -0.526416
v -0.783592 0.377515 -0.532917
v -0.759652 0.377515 -0.523001
v -0.749736 0.377515 -0.499060
v -0.759652 0.377515 -0.475120
v -0.783592 0.377515 -0.465204
v -0.807533 0.377515 -0.475120
v -0.817449 0.377515 -0.499060
v -0.807533 0.377515 -0.523001
vn -0.3536 -0.3826 -0.8536
vn 0.8536 -0.3826 0.3536
vn 0.3536 -0.3826 0.8536
vn -0.3536 -0.3826 0.8536
vn -0.8536 -0.3826 0.3536
vn -0.8536 -0.3826 -0.3536
vn 0.3827 -0.0000 0.9239
vn 0.3536 -0.3826 -0.8536
vn 0.8536 -0.3826 -0.3536
vn -0.9180 0.1129 -0.3802
vn -0.9180 0.1129 0.3802
vn -0.3802 0.1129 0.9180
vn 0.3802 0.1129 0.9180
vn 0.9180 0.1129 0.3802
vn 0.9180 0.1129 -0.3802
vn 0.3802 0.1129 -0.9180
vn -0.3812 -0.0874 -0.9203
vn -0.3684 -0.2706 -0.8894
vn -0.9203 -0.0874 -0.3812
vn -0.8894 -0.2706 -0.3684
vn -0.9203 -0.0874 0.3812
vn -0.8894 -0.2706 0.3684
vn -0.3812 -0.0874 0.9203
vn -0.3684 -0.2706 0.8894
vn 0.3812 -0.0874 0.9203
vn 0.3684 -0.2706 0.8894
vn 0.9203 -0.0874 0.3812
vn 0.8894 -0.2706 0.3684
vn 0.9203 -0.0874 -0.3812
vn 0.8894 -0.2706 -0.3684
vn 0.3812 -0.0874 -0.9203
vn 0.3684 -0.2706 -0.8894
vn -0.3802 0.1129 -0.9180
vn -0.0000 1.0000 -0.0000
vn 0.9239 -0.0000 -0.3827
vn -0.3827 -0.0000 -0.9239
vn -0.9239 -0.0000 0.3827
vn 0.9239 -0.0000 0.3827
vn 0.3827 -0.0000 -0.9239
vn -0.9239 -0.0000 -0.3827
vn -0.3827 -0.0000 0.9239
vn -0.0000 -1.0000 -0.0000
vt 0.945230 0.631340
vt 0.956081 0.529355
vt 0.956081 0.557363
vt 0.956081 0.585371
vt 0.956081 0.613379
vt 0.956081 0.641387
vt 0.956081 0.669395
vt 0.956081 0.697403
vt 0.956081 0.501347
vt 0.956081 0.725411
vt 0.931460 0.529355
vt 0.885255 0.529355
vt 0.907965 0.529355
vt 0.885255 0.557363
vt 0.931460 0.557363
vt 0.907965 0.557363
vt 0.885255 0.585371
vt 0.931460 0.585371
vt 0.907965 0.585371
vt 0.885255 0.613379
vt 0.931460 0.613379
vt 0.907965 0.613379
vt 0.885255 0.641387
vt 0.931460 0.641387
vt 0.907965 0.641387
vt 0.885255 0.669395
vt 0.931460 0.669395
vt 0.907965 0.669395
vt 0.885255 0.697403
vt 0.931460 0.697403
vt 0.907965 0.697403
vt 0.885255 0.501347
vt 0.885255 0.725411
vt 0.931460 0.725411
vt 0.931460 0.501347
vt 0.907965 0.501347
vt 0.907965 0.725411
vt 0.944478 0.557363
vt 0.944478 0.529355
vt 0.944478 0.585371
vt 0.944478 0.613379
vt 0.944478 0.641387
vt 0.944478 0.669395
vt 0.944478 0.697403
vt 0.944478 0.725411
vt 0.944478 0.501347
vt 0.984670 0.557363
vt 0.984670 0.529355
vt 0.984670 0.585371
vt 0.984670 0.613379
vt 0.984670 0.641387
vt 0.984670 0.669395
vt 0.984670 0.697403
vt 0.984670 0.501347
vt 0.984670 0.725411
vt 0.866698 0.529355
vt 0.945230 0.631340
vt 0.866698 0.557363
vt 0.945230 0.631340
vt 0.866698 0.585371
vt 0.945230 0.631340
vt 0.866698 0.613379
vt 0.945230 0.631340
vt 0.866698 0.641387
vt 0.945230 0.631340
vt 0.866698 0.669395
vt 0.945230 0.631340
vt 0.866698 0.697403
vt 0.945230 0.631340
vt 0.866698 0.501347
vt 0.866698 0.725411
vt 0.945230 0.631340
s 0
f 97/190/11 71/152/11 51/132/11 90/176/11
f 92/180/12 56/137/12 59/140/12 93/182/12
f 93/182/13 59/140/13 62/143/13 94/184/13
f 94/184/14 62/143/14 65/146/14 95/186/14
f 95/186/15 65/146/15 68/149/15 96/188/15
f 96/188/16 68/149/16 71/153/16 97/191/16
f 42/122/17 49/129/17 89/174/17 83/168/17
f 90/176/18 51/132/18 53/134/18 91/178/18
f 91/178/19 53/134/19 56/137/19 92/180/19
f 69/150/20 80/164/20 81/165/20 72/154/20
f 66/147/21 79/163/21 80/164/21 69/150/21
f 63/144/22 78/162/22 79/163/22 66/147/22
f 60/141/23 77/161/23 78/162/23 63/144/23
f 57/138/24 76/160/24 77/161/24 60/141/24
f 54/135/25 74/158/25 76/160/25 57/138/25
f 50/131/26 75/159/26 74/158/26 54/135/26
f 72/155/27 50/131/27 52/133/27 73/156/27
f 73/156/28 52/133/28 51/132/28 71/152/28
f 69/150/29 72/154/29 73/157/29 70/151/29
f 70/151/30 73/157/30 71/153/30 68/149/30
f 66/147/31 69/150/31 70/151/31 67/148/31
f 67/148/32 70/151/32 68/149/32 65/146/32
f 63/144/33 66/147/33 67/148/33 64/145/33
f 64/145/34 67/148/34 65/146/34 62/143/34
f 60/141/35 63/144/35 64/145/35 61/142/35
f 61/142/36 64/145/36 62/143/36 59/140/36
f 57/138/37 60/141/37 61/142/37 58/139/37
f 58/139/38 61/142/38 59/140/38 56/137/38
f 54/135/39 57/138/39 58/139/39 55/136/39
f 55/136/40 58/139/40 56/137/40 53/134/40
f 50/131/41 54/135/41 55/136/41 52/133/41
f 52/133/42 55/136/42 53/134/42 51/132/42
f 72/155/43 81/166/43 75/159/43 50/131/43
f 42/122/44 43/123/44 74/158/44 75/159/44
f 43/123/44 44/124/44 76/160/44 74/158/44
f 44/124/44 45/125/44 77/161/44 76/160/44
f 45/125/44 46/126/44 78/162/44 77/161/44
f 46/126/44 47/127/44 79/163/44 78/162/44
f 47/127/44 48/128/44 80/164/44 79/163/44
f 48/128/44 49/130/44 81/165/44 80/164/44
f 49/129/44 42/122/44 75/159/44 81/166/44
f 48/128/45 47/127/45 87/172/45 88/173/45
f 46/126/46 45/125/46 85/170/46 86/171/46
f 44/124/47 43/123/47 82/167/47 84/169/47
f 49/130/48 48/128/48 88/173/48 89/175/48
f 47/127/49 46/126/49 86/171/49 87/172/49
f 45/125/50 44/124/50 84/169/50 85/170/50
f 43/123/51 42/122/51 83/168/51 82/167/51
f 41/121/52 90/177/52 91/179/52
f 41/121/52 91/179/52 92/181/52
f 41/121/52 92/181/52 93/183/52
f 41/121/52 93/183/52 94/185/52
f 41/121/52 94/185/52 95/187/52
f 41/121/52 95/187/52 96/189/52
f 41/121/52 96/189/52 97/192/52
f 41/121/52 97/192/52 90/177/52
