# Blender 3.3.1
# www.blender.org
o Cubo.002
v 0.213203 0.365233 -0.445227
v 0.213203 0.423697 -0.445227
v 0.202436 0.365233 -0.883905
v 0.202436 0.423697 -0.883905
v 0.883885 0.365233 -0.461688
v 0.883885 0.423697 -0.461688
v 0.873119 0.365233 -0.900365
v 0.873119 0.423697 -0.900365
v 0.538289 0.368009 -0.871308
v 0.538289 0.420922 -0.871308
v 0.548033 0.368009 -0.474284
v 0.548033 0.420922 -0.474284
v 0.216518 0.365233 -0.737936
v 0.220107 0.365233 -0.591711
v 0.220107 0.423697 -0.591711
v 0.216518 0.423697 -0.737936
v 0.880296 0.365233 -0.607913
v 0.876707 0.365233 -0.754139
v 0.876707 0.423697 -0.754139
v 0.880296 0.423697 -0.607913
v 0.541537 0.420922 -0.738967
v 0.544785 0.420922 -0.606625
v 0.541537 0.368009 -0.738967
v 0.544785 0.368009 -0.606625
v 0.205569 0.423697 -0.736880
v 0.184687 0.423697 -0.882192
v 0.184687 0.365233 -0.882192
v 0.205569 0.365233 -0.736880
v 0.222494 0.384800 -0.459699
v 0.221010 0.384800 -0.520156
v 0.283324 0.384800 -0.461192
v 0.281841 0.384800 -0.521649
v 0.225492 0.060549 -0.515954
v 0.226764 0.060549 -0.464115
v 0.277571 0.060549 -0.517233
v 0.278843 0.060549 -0.465393
v 0.231625 0.150112 -0.469272
v 0.227260 0.294195 -0.464728
v 0.278318 0.294195 -0.465981
v 0.273734 0.150112 -0.470305
v 0.272709 0.150112 -0.512076
v 0.277075 0.294195 -0.516619
v 0.226017 0.294195 -0.515366
v 0.230600 0.150112 -0.511042
v 0.873895 0.384800 -0.475686
v 0.872411 0.384800 -0.536143
v 0.813065 0.384800 -0.474193
v 0.811581 0.384800 -0.534650
v 0.868141 0.060549 -0.531727
v 0.869413 0.060549 -0.479887
v 0.816062 0.060549 -0.530449
v 0.817334 0.060549 -0.478609
v 0.864305 0.150112 -0.484800
v 0.868888 0.294195 -0.480475
v 0.817830 0.294195 -0.479222
v 0.822196 0.150112 -0.483766
v 0.821171 0.150112 -0.525536
v 0.816588 0.294195 -0.529860
v 0.867645 0.294195 -0.531114
v 0.863280 0.150112 -0.526570
v 0.212427 0.384800 -0.869907
v 0.213910 0.384800 -0.809449
v 0.273257 0.384800 -0.871400
v 0.274740 0.384800 -0.810942
v 0.218180 0.060549 -0.813866
v 0.216908 0.060549 -0.865705
v 0.270259 0.060549 -0.815144
v 0.268987 0.060549 -0.866983
v 0.222016 0.150112 -0.860793
v 0.217433 0.294195 -0.865117
v 0.268491 0.294195 -0.866370
v 0.264125 0.150112 -0.861826
v 0.265151 0.150112 -0.820056
v 0.269734 0.294195 -0.815732
v 0.218676 0.294195 -0.814479
v 0.223042 0.150112 -0.819023
v 0.863827 0.384800 -0.885894
v 0.865311 0.384800 -0.825436
v 0.802997 0.384800 -0.884401
v 0.804481 0.384800 -0.823943
v 0.860829 0.060549 -0.829638
v 0.859557 0.060549 -0.881477
v 0.808751 0.060549 -0.828360
v 0.807478 0.060549 -0.880199
v 0.854696 0.150112 -0.876320
v 0.859061 0.294195 -0.880864
v 0.808004 0.294195 -0.879611
v 0.812587 0.150112 -0.875287
v 0.813612 0.150112 -0.833517
v 0.809246 0.294195 -0.828973
v 0.860304 0.294195 -0.830226
v 0.855721 0.150112 -0.834550
vn -0.0000 1.0000 -0.0000
vn -0.0865 -0.0000 -0.9963
vn 0.9997 -0.0000 -0.0245
vn 0.0865 -0.0000 0.9963
vn -0.0083 -1.0000 0.0002
vn 0.0084 1.0000 0.0001
vn -0.0083 1.0000 0.0002
vn 0.0084 -1.0000 0.0001
vn -0.0375 -0.0000 0.9993
vn 0.0375 -0.0000 -0.9993
vn 0.0084 -1.0000 -0.0005
vn 0.0085 -1.0000 -0.0002
vn 0.0084 1.0000 -0.0005
vn 0.0085 1.0000 -0.0002
vn -0.9989 -0.0000 -0.0471
vn -0.9997 -0.0000 0.0245
vn -0.9898 -0.0000 0.1422
vn -0.0000 -1.0000 -0.0000
vn -0.0960 -0.0000 -0.9954
vn 0.0960 -0.0000 0.9954
vn -0.9982 -0.0539 0.0245
vn -0.0245 -0.0541 -0.9982
vn -0.0245 0.0561 -0.9981
vn 0.0245 -0.0541 0.9982
vn 0.9982 -0.0539 -0.0245
vn 0.9982 0.0556 -0.0245
vn 0.0245 0.0561 0.9981
vn -0.9992 -0.0310 0.0245
vn 0.9992 -0.0310 -0.0245
vn -0.0245 -0.0308 -0.9992
vn 0.0245 -0.0308 0.9992
vn -0.9982 0.0556 0.0245
vt 0.711383 0.065117
vt 0.710085 0.462041
vt 0.830467 0.127414
vt 0.711383 0.088425
vt 0.710117 0.461907
vt 0.830467 0.150722
vt 0.881107 0.462041
vt 0.979306 0.031326
vt 0.881066 0.461907
vt 0.979306 0.054634
vt 0.713862 0.096999
vt 0.710085 0.202795
vt 0.979361 0.065117
vt 0.713862 0.120307
vt 0.710117 0.202911
vt 0.979361 0.088425
vt 0.711329 0.031326
vt 0.881107 0.202795
vt 0.888802 0.096999
vt 0.711329 0.054634
vt 0.881066 0.202911
vt 0.888802 0.120307
vt 0.845317 0.032433
vt 0.881107 0.333438
vt 0.845317 0.053527
vt 0.881066 0.333429
vt 0.710085 0.333438
vt 0.845372 0.066223
vt 0.710117 0.333429
vt 0.845372 0.087318
vt 0.713689 0.127414
vt 0.823747 0.462041
vt 0.802497 0.177355
vt 0.766941 0.462041
vt 0.772003 0.127414
vt 0.766948 0.461907
vt 0.772003 0.150722
vt 0.823729 0.461907
vt 0.713689 0.150722
vt 0.779189 0.177355
vt 0.766941 0.202795
vt 0.772175 0.096999
vt 0.823747 0.202795
vt 0.830489 0.096999
vt 0.823729 0.202911
vt 0.830489 0.120307
vt 0.766948 0.202911
vt 0.772175 0.120307
vt 0.823729 0.333429
vt 0.766948 0.333429
vt 0.823747 0.333438
vt 0.766941 0.333438
vt 0.823729 0.467068
vt 0.772156 0.179869
vt 0.779189 0.172970
vt 0.881066 0.467068
vt 0.713629 0.179869
vt 0.986415 0.054634
vt 0.713629 0.156561
vt 0.881107 0.466986
vt 0.986415 0.031326
vt 0.772156 0.156561
vt 0.823747 0.466986
vt 0.802497 0.172970
vt 0.947129 0.261535
vt 0.947129 0.282197
vt 0.927296 0.261535
vt 0.967095 0.261535
vt 0.967095 0.282197
vt 0.907330 0.261535
vt 0.986928 0.261535
vt 0.947129 0.109724
vt 0.927296 0.130386
vt 0.947129 0.130386
vt 0.967095 0.109724
vt 0.907330 0.130386
vt 0.986928 0.130386
vt 0.967095 0.130386
vt 0.947129 0.166648
vt 0.947129 0.224859
vt 0.967095 0.224859
vt 0.967095 0.166648
vt 0.986928 0.166648
vt 0.907330 0.166648
vt 0.986928 0.224859
vt 0.907330 0.224859
vt 0.927296 0.224859
vt 0.927296 0.166648
vt 0.947129 0.261535
vt 0.947129 0.282197
vt 0.927296 0.261535
vt 0.967095 0.261535
vt 0.967095 0.282197
vt 0.907330 0.261535
vt 0.986928 0.261535
vt 0.947129 0.109724
vt 0.927296 0.130386
vt 0.947129 0.130386
vt 0.967095 0.109724
vt 0.907330 0.130386
vt 0.986928 0.130386
vt 0.967095 0.130386
vt 0.947129 0.166648
vt 0.947129 0.224859
vt 0.967095 0.224859
vt 0.967095 0.166648
vt 0.986928 0.166648
vt 0.907330 0.166648
vt 0.986928 0.224859
vt 0.907330 0.224859
vt 0.927296 0.224859
vt 0.927296 0.166648
vt 0.947129 0.261535
vt 0.947129 0.282197
vt 0.927296 0.261535
vt 0.967095 0.261535
vt 0.967095 0.282197
vt 0.907330 0.261535
vt 0.986928 0.261535
vt 0.947129 0.109724
vt 0.927296 0.130386
vt 0.947129 0.130386
vt 0.967095 0.109724
vt 0.907330 0.130386
vt 0.986928 0.130386
vt 0.967095 0.130386
vt 0.947129 0.166648
vt 0.947129 0.224859
vt 0.967095 0.224859
vt 0.967095 0.166648
vt 0.986928 0.166648
vt 0.907330 0.166648
vt 0.986928 0.224859
vt 0.907330 0.224859
vt 0.927296 0.224859
vt 0.927296 0.166648
vt 0.947129 0.261535
vt 0.947129 0.282197
vt 0.927296 0.261535
vt 0.967095 0.261535
vt 0.967095 0.282197
vt 0.907330 0.261535
vt 0.986928 0.261535
vt 0.947129 0.109724
vt 0.927296 0.130386
vt 0.947129 0.130386
vt 0.967095 0.109724
vt 0.907330 0.130386
vt 0.986928 0.130386
vt 0.967095 0.130386
vt 0.947129 0.166648
vt 0.947129 0.224859
vt 0.967095 0.224859
vt 0.967095 0.166648
vt 0.986928 0.166648
vt 0.907330 0.166648
vt 0.986928 0.224859
vt 0.907330 0.224859
vt 0.927296 0.224859
vt 0.927296 0.166648
s 0
f 16/38/1 4/9/1 26/56/1 25/53/1
f 9/23/2 10/25/2 8/20/2 7/17/2
f 17/42/3 20/48/3 6/14/3 5/11/3
f 11/28/4 12/30/4 2/4/4 1/1/4
f 24/52/5 17/41/5 5/12/5 11/27/5
f 22/50/6 15/36/6 2/5/6 12/29/6
f 20/47/7 22/50/7 12/29/7 6/15/7
f 14/34/8 24/52/8 11/27/8 1/2/8
f 5/13/9 6/16/9 12/30/9 11/28/9
f 3/8/10 4/10/10 10/25/10 9/23/10
f 3/7/11 9/24/11 23/51/11 13/32/11
f 13/32/12 23/51/12 24/52/12 14/34/12
f 8/21/7 10/26/7 21/49/7 19/45/7
f 19/45/7 21/49/7 22/50/7 20/47/7
f 10/26/13 4/9/13 16/38/13 21/49/13
f 21/49/14 16/38/14 15/36/14 22/50/14
f 9/24/5 7/18/5 18/43/5 23/51/5
f 23/51/5 18/43/5 17/41/5 24/52/5
f 7/19/3 8/22/3 19/46/3 18/44/3
f 18/44/3 19/46/3 20/48/3 17/42/3
f 1/3/15 2/6/15 15/37/15 14/35/15
f 14/35/16 15/37/16 16/39/16 13/31/16
f 28/62/17 25/54/17 26/57/17 27/59/17
f 3/7/18 13/32/18 28/63/18 27/60/18
f 4/10/19 3/8/19 27/61/19 26/58/19
f 13/33/20 16/40/20 25/55/20 28/64/20
f 30/66/1 29/65/1 31/68/1 32/69/1
f 33/72/18 35/75/18 36/78/18 34/74/18
f 29/65/21 30/67/21 43/87/21 38/80/21
f 30/67/22 32/70/22 42/86/22 43/87/22
f 44/88/23 41/84/23 35/76/23 33/73/23
f 31/68/24 29/65/24 38/80/24 39/81/24
f 32/71/25 31/68/25 39/81/25 42/85/25
f 41/83/26 40/82/26 36/78/26 35/77/26
f 40/82/27 37/79/27 34/74/27 36/78/27
f 44/88/28 37/79/28 38/80/28 43/87/28
f 40/82/29 41/83/29 42/85/29 39/81/29
f 41/84/30 44/88/30 43/87/30 42/86/30
f 37/79/31 40/82/31 39/81/31 38/80/31
f 37/79/32 44/88/32 33/73/32 34/74/32
f 46/90/1 48/93/1 47/92/1 45/89/1
f 49/96/18 50/98/18 52/102/18 51/99/18
f 45/89/25 54/104/25 59/111/25 46/91/25
f 46/91/22 59/111/22 58/110/22 48/94/22
f 60/112/23 49/97/23 51/100/23 57/108/23
f 47/92/24 55/105/24 54/104/24 45/89/24
f 48/95/21 58/109/21 55/105/21 47/92/21
f 57/107/32 51/101/32 52/102/32 56/106/32
f 56/106/27 52/102/27 50/98/27 53/103/27
f 60/112/29 59/111/29 54/104/29 53/103/29
f 56/106/28 55/105/28 58/109/28 57/107/28
f 57/108/30 58/110/30 59/111/30 60/112/30
f 53/103/31 54/104/31 55/105/31 56/106/31
f 53/103/26 50/98/26 49/97/26 60/112/26
f 62/114/1 64/117/1 63/116/1 61/113/1
f 65/120/18 66/122/18 68/126/18 67/123/18
f 61/113/21 70/128/21 75/135/21 62/115/21
f 62/115/24 75/135/24 74/134/24 64/118/24
f 76/136/27 65/121/27 67/124/27 73/132/27
f 63/116/22 71/129/22 70/128/22 61/113/22
f 64/119/25 74/133/25 71/129/25 63/116/25
f 73/131/26 67/125/26 68/126/26 72/130/26
f 72/130/23 68/126/23 66/122/23 69/127/23
f 76/136/28 75/135/28 70/128/28 69/127/28
f 72/130/29 71/129/29 74/133/29 73/131/29
f 73/132/31 74/134/31 75/135/31 76/136/31
f 69/127/30 70/128/30 71/129/30 72/130/30
f 69/127/32 66/122/32 65/121/32 76/136/32
f 78/138/1 77/137/1 79/140/1 80/141/1
f 81/144/18 83/147/18 84/150/18 82/146/18
f 77/137/25 78/139/25 91/159/25 86/152/25
f 78/139/24 80/142/24 90/158/24 91/159/24
f 92/160/27 89/156/27 83/148/27 81/145/27
f 79/140/22 77/137/22 86/152/22 87/153/22
f 80/143/21 79/140/21 87/153/21 90/157/21
f 89/155/32 88/154/32 84/150/32 83/149/32
f 88/154/23 85/151/23 82/146/23 84/150/23
f 92/160/29 85/151/29 86/152/29 91/159/29
f 88/154/28 89/155/28 90/157/28 87/153/28
f 89/156/31 92/160/31 91/159/31 90/158/31
f 85/151/30 88/154/30 87/153/30 86/152/30
f 85/151/26 92/160/26 81/145/26 82/146/26
