# Blender 3.3.1
# www.blender.org
o Cubo
v -1.090209 0.000000 1.000000
v -1.090209 1.407434 1.000000
v -0.471262 0.386038 -1.000097
v -0.471262 1.066458 -1.000097
v 1.109503 0.000000 1.000000
v 1.109503 1.407434 1.000000
v 0.119464 0.386038 -1.000097
v 0.119464 1.066458 -1.000097
v -0.469242 0.388366 -0.939938
v -1.023193 0.067017 1.000000
v -1.023193 1.340418 1.000000
v -0.469242 1.064130 -0.939938
v 0.117444 0.388366 -0.939938
v 0.117444 1.064130 -0.939938
v 1.042486 0.067017 1.000000
v 1.042486 1.340418 1.000000
v -1.090209 1.407434 -1.000000
v -1.090209 0.000000 -1.000000
v 1.109503 0.000000 -1.000000
v 1.109503 1.407434 -1.000000
v -1.035490 1.352716 -0.945281
v -1.035490 0.054719 -0.945281
v 1.054784 0.054719 -0.945281
v 1.054784 1.352716 -0.945281
vn -1.0000 -0.0000 -0.0000
vn -0.9994 -0.0000 -0.0336
vn 1.0000 -0.0000 -0.0000
vn -0.0000 1.0000 -0.0000
vn 1.0000 -0.0000 -0.0063
vn -0.0000 -0.9993 -0.0387
vn -1.0000 -0.0000 -0.0063
vn -0.0000 -1.0000 -0.0063
vn -0.0000 -0.0000 1.0000
vn -0.0002 -0.0000 -1.0000
vn -0.0000 -0.0003 -1.0000
vn -0.0000 0.0003 -1.0000
vn 0.0001 -0.0000 -1.0000
vn -0.0094 -0.0000 1.0000
vn -0.0000 -0.0160 0.9999
vn -0.0000 0.0185 0.9998
vn 0.0057 -0.0000 1.0000
vn -0.0000 0.9993 -0.0387
vn 0.9994 -0.0000 -0.0336
vn -0.7071 -0.7071 -0.0000
vn -0.0000 -0.7071 0.7071
vn 0.7071 -0.7071 -0.0000
vt 0.491000 0.651820
vt 0.491000 0.651820
vt 0.491000 0.651820
vt 0.491000 0.651820
vt 0.491000 0.651820
vt 0.491000 0.651820
vt 0.491000 0.651820
vt 0.491000 0.651820
vt 0.273513 0.340376
vt 0.491000 0.651820
vt 0.041803 0.189571
vt 0.491000 0.651820
vt 0.041803 0.787129
vt 0.491000 0.651820
vt 0.273520 0.657475
vt 0.491000 0.651820
vt 0.548821 0.340372
vt 0.491000 0.651820
vt 0.491000 0.651820
vt 0.548819 0.657477
vt 0.041803 0.787129
vt 0.491000 0.651820
vt 0.041803 0.189572
vt 0.491000 0.651820
vt 0.491000 0.651820
vt 0.491000 0.651820
vt 0.491000 0.651820
vt 0.491000 0.651820
vt 0.954667 0.792900
vt 0.491000 0.651820
vt 0.007796 0.792919
vt 0.954667 0.183800
vt 0.007787 0.183792
vt 0.491000 0.651820
vt 0.954666 0.792900
vt 0.988683 0.183781
vt 0.491000 0.651820
vt 0.954666 0.183800
vt 0.491000 0.651820
vt 0.988683 0.792919
s 0
f 1/1/1 2/2/1 17/25/1 18/26/1
f 14/19/2 8/8/2 7/7/2 13/18/2
f 19/27/3 20/28/3 6/6/3 5/5/3
f 20/28/4 17/25/4 2/2/4 6/6/4
f 10/11/5 22/32/5 21/29/5 11/13/5
f 12/16/6 4/4/6 8/8/6 14/19/6
f 23/35/7 15/21/7 16/23/7 24/38/7
f 24/39/8 16/24/8 11/14/8 21/30/8
f 1/1/9 10/12/9 11/14/9 2/2/9
f 2/2/9 11/14/9 16/24/9 6/6/9
f 6/6/9 16/24/9 15/22/9 5/5/9
f 3/3/10 18/26/10 17/25/10 4/4/10
f 7/7/11 19/27/11 18/26/11 3/3/11
f 4/4/12 17/25/12 20/28/12 8/8/12
f 8/8/13 20/28/13 19/27/13 7/7/13
f 12/15/14 21/31/14 22/33/14 9/9/14
f 9/9/15 22/33/15 23/36/15 13/17/15
f 14/20/16 24/40/16 21/31/16 12/15/16
f 13/17/17 23/36/17 24/40/17 14/20/17
f 13/18/18 7/7/18 3/3/18 9/10/18
f 9/10/19 3/3/19 4/4/19 12/16/19
f 19/27/20 5/5/20 15/22/20 23/37/20
f 18/26/21 19/27/21 23/37/21 22/34/21
f 1/1/22 18/26/22 22/34/22 10/12/22
