# Blender 3.3.1
# www.blender.org
o Cubo.001
v -0.595473 0.061056 0.362383
v -0.595473 0.263099 0.362383
v -1.019049 0.061056 0.362383
v -1.019049 0.484632 0.362383
v -0.595473 0.061056 -0.362383
v -0.595473 0.263099 -0.362383
v -1.019049 0.061056 -0.362383
v -1.019049 0.484632 -0.362383
v -0.947274 0.484632 -0.362383
v -0.947274 0.061056 -0.362383
v -0.947274 0.484632 0.362383
v -0.947274 0.061056 0.362383
v -1.019049 0.061056 0.256852
v -1.019049 0.061056 -0.256852
v -1.019049 0.484632 -0.256852
v -1.019049 0.484632 0.256852
v -0.595473 0.061056 -0.256852
v -0.595473 0.061056 0.256852
v -0.595473 0.263099 0.256852
v -0.595473 0.263099 -0.256852
v -0.947274 0.484632 0.256852
v -0.947274 0.484632 -0.256852
v -0.947274 0.061056 -0.256852
v -0.947274 0.061056 0.256852
v -0.595473 0.191304 0.362383
v -1.019049 0.191304 0.362383
v -1.019049 0.191304 -0.362383
v -0.595473 0.191304 -0.362383
v -0.595473 0.191304 0.256852
v -0.595473 0.191304 -0.256852
v -1.019049 0.191304 -0.256852
v -1.019049 0.191304 0.256852
v -0.947274 0.191304 -0.362383
v -0.947274 0.191304 0.362383
v -0.947274 0.191304 0.256852
v -0.947274 0.191304 -0.256852
v -0.853329 0.061056 0.362383
v -0.853329 0.061056 0.256852
v -0.853329 0.342866 -0.362383
v -0.853329 0.342866 0.362383
v -0.853329 0.342866 -0.256852
v -0.853329 0.061056 -0.362383
v -0.853329 0.342866 0.256852
v -0.853329 0.061056 -0.256852
v -0.853329 0.191304 0.362383
v -0.853329 0.191304 -0.362383
v -0.853329 0.191304 0.256852
v -0.853329 0.191304 -0.256852
v -0.601344 0.191304 0.249431
v -0.601344 0.191304 -0.249431
v -0.942981 0.191304 0.249431
v -0.942982 0.191304 -0.249431
v -0.601344 0.247424 0.249431
v -0.601344 0.247424 -0.249431
v -0.942981 0.247424 0.249431
v -0.942982 0.247424 -0.249431
v -0.943843 0.479237 0.240555
v -0.943843 0.479237 -0.240555
v -0.943843 0.251888 0.240555
v -0.943843 0.251888 -0.240555
v -0.898853 0.479237 0.240555
v -0.898853 0.479237 -0.240555
v -0.898853 0.251888 0.240555
v -0.898853 0.251888 -0.240555
v -0.945206 0.233252 0.252679
v -0.945206 0.205476 0.252679
v -0.945206 0.205476 -0.252679
v -0.945206 0.233252 -0.252679
v -0.599120 0.233252 -0.252679
v -0.599120 0.205476 -0.252679
v -0.599120 0.205476 0.252679
v -0.599120 0.233252 0.252679
v -0.913155 0.483751 -0.250109
v -0.929541 0.483751 -0.250109
v -0.929541 0.247374 -0.250109
v -0.913155 0.247374 -0.250109
v -0.913155 0.483751 0.250109
v -0.929541 0.483751 0.250109
v -0.929541 0.247374 0.250109
v -0.913155 0.247374 0.250109
v -0.595473 0.250044 0.362383
v -0.947274 0.467485 0.256852
v -0.595473 0.258902 -0.256852
v -1.019049 0.467485 0.256852
v -1.019049 0.470173 0.362383
v -1.019049 0.467485 -0.362383
v -0.595473 0.258902 -0.362383
v -0.595473 0.251315 0.256852
v -1.019049 0.467485 -0.256852
v -0.947274 0.467485 -0.362383
v -0.947274 0.470173 0.362383
v -0.947274 0.467485 -0.256852
v -0.853329 0.334006 -0.256852
v -0.853329 0.326419 0.256852
v -0.853329 0.329797 0.362383
v -0.853329 0.334006 -0.362383
v -0.611701 0.061056 0.362383
v -0.611701 0.268119 -0.362383
v -0.611701 0.268119 0.256852
v -0.611701 0.061056 -0.256852
v -0.611701 0.191304 -0.362383
v -0.611701 0.191304 -0.256852
v -0.611701 0.061056 0.256852
v -0.611701 0.268119 0.362383
v -0.611701 0.268119 -0.256852
v -0.611701 0.061056 -0.362383
v -0.611701 0.191304 0.362383
v -0.611701 0.191304 0.256852
v -0.611701 0.255063 0.362383
v -0.611701 0.263629 -0.256852
v -0.611701 0.256042 0.256852
v -0.611701 0.263629 -0.362383
vn -0.0000 -0.0000 1.0000
vn 0.2955 0.9553 -0.0000
vn -0.0000 -0.0000 -1.0000
vn -0.0000 -1.0000 -0.0000
vn 1.0000 -0.0000 -0.0000
vn -1.0000 -0.0000 -0.0000
vn -0.0000 1.0000 -0.0000
vn 0.8336 0.5524 -0.0000
vn -0.0000 -0.2234 -0.9747
vn -0.0000 0.2234 0.9747
vn 0.9879 0.1551 -0.0000
vn -0.9879 0.1551 -0.0000
vn 0.9879 -0.1551 -0.0000
vn -0.0000 -0.2234 0.9747
vn -0.0000 0.2234 -0.9747
vn -0.3010 0.9536 -0.0000
vn -0.5555 -0.0000 -0.8315
vn 0.5555 -0.0000 0.8315
vn -0.5555 -0.0000 0.8315
vn 0.3010 -0.9536 -0.0000
vn -0.3010 -0.9536 -0.0000
vn 0.5555 -0.0000 -0.8315
vn -0.9879 -0.1551 -0.0000
vn 0.3010 0.9536 -0.0000
vt 0.585938 0.062500
vt 0.234375 0.500000
vt 0.490723 0.062500
vt 0.233707 0.733667
vt 0.803090 0.372644
vt 0.046875 0.500000
vt 0.047516 0.733667
vt 0.622758 0.372644
vt 0.273438 0.062500
vt 0.585938 0.375000
vt 0.234375 0.296875
vt 0.233707 0.062983
vt 0.498535 0.375000
vt 0.046875 0.296875
vt 0.803090 0.064083
vt 0.622758 0.064083
vt 0.047515 0.062983
vt 0.273438 0.375000
vt 0.082955 0.062983
vt 0.312500 0.375000
vt 0.085938 0.296875
vt 0.082955 0.733667
vt 0.312500 0.062500
vt 0.085938 0.500000
vt 0.046875 0.453125
vt 0.803090 0.327715
vt 0.046875 0.343750
vt 0.803090 0.109012
vt 0.273438 0.320312
vt 0.622758 0.109012
vt 0.273438 0.109375
vt 0.622758 0.327715
vt 0.234375 0.343750
vt 0.585938 0.320312
vt 0.234375 0.453125
vt 0.585116 0.109012
vt 0.490723 0.109375
vt 0.718750 0.953125
vt 0.498535 0.320312
vt 0.179688 0.773438
vt 0.311006 0.109012
vt 0.718750 0.789062
vt 0.846158 0.064083
vt 0.179688 0.929688
vt 0.312500 0.320312
vt 0.846158 0.282786
vt 0.085938 0.343750
vt 0.085938 0.453125
vt 0.523438 0.062500
vt 0.233707 0.608428
vt 0.747639 0.372644
vt 0.047516 0.608428
vt 0.047515 0.188964
vt 0.747639 0.064083
vt 0.523438 0.375000
vt 0.233707 0.188964
vt 0.585938 0.953125
vt 0.524239 0.109012
vt 0.273438 0.984375
vt 0.046875 0.773438
vt 0.523438 0.320312
vt 0.273438 0.757812
vt 0.747639 0.109012
vt 0.747639 0.327715
vt 0.082955 0.188964
vt 0.082955 0.608428
vt 0.971039 0.064083
vt 0.429688 0.984375
vt 0.585938 0.789062
vt 0.971039 0.282786
vt 0.429688 0.757812
vt 0.046875 0.929688
vt 0.125000 0.500000
vt 0.125000 0.453125
vt 0.122952 0.062983
vt 0.375000 0.375000
vt 0.122952 0.733667
vt 0.375000 0.062500
vt 0.179688 0.882812
vt 0.375000 0.320312
vt 0.125000 0.296875
vt 0.718750 0.843750
vt 0.378761 0.109012
vt 0.125000 0.343750
vt 0.122952 0.608428
vt 0.122952 0.188964
vt 0.382812 0.984375
vt 0.585938 0.843750
vt 0.382812 0.757812
vt 0.046875 0.882812
vt 0.871958 0.752517
vt 0.812500 0.609375
vt 0.847752 0.562107
vt 0.585938 0.609375
vt 0.871958 0.607069
vt 0.812500 0.757812
vt 0.812500 0.414062
vt 0.847752 0.416659
vt 0.585938 0.757812
vt 0.585938 0.414062
vt 0.847752 0.752517
vt 0.812500 0.578125
vt 0.585938 0.578125
vt 0.871958 0.562107
vt 0.847752 0.607069
vt 0.812500 0.445312
vt 0.585938 0.445312
vt 0.871958 0.416659
vt 0.554688 0.539062
vt 0.492188 0.757812
vt 0.273438 0.539062
vt 0.875000 0.898438
vt 0.554688 0.414062
vt 0.492188 0.867188
vt 0.554688 0.718750
vt 0.273438 0.414062
vt 0.875000 0.796875
vt 0.273438 0.718750
vt 0.468750 0.757812
vt 0.554688 0.570312
vt 0.843750 0.898438
vt 0.273438 0.570312
vt 0.468750 0.867188
vt 0.554688 0.695312
vt 0.273438 0.695312
vt 0.843750 0.796875
vt 0.853942 0.606122
vt 0.812500 0.437500
vt 0.865768 0.606122
vt 0.812500 0.421875
vt 0.853943 0.415712
vt 0.585938 0.421875
vt 0.865768 0.415712
vt 0.585938 0.437500
vt 0.865768 0.563054
vt 0.585938 0.585938
vt 0.853943 0.563054
vt 0.585938 0.601562
vt 0.865768 0.753464
vt 0.812500 0.601562
vt 0.853942 0.753464
vt 0.812500 0.585938
vt 0.851562 0.898438
vt 0.273438 0.562500
vt 0.273438 0.546875
vt 0.867188 0.898438
vt 0.273438 0.710938
vt 0.867188 0.796875
vt 0.273438 0.703125
vt 0.851562 0.796875
vt 0.476562 0.757812
vt 0.554688 0.562500
vt 0.484375 0.757812
vt 0.554688 0.546875
vt 0.484375 0.867188
vt 0.554688 0.710938
vt 0.476562 0.867188
vt 0.554688 0.703125
vt 0.492084 0.062500
vt 0.233707 0.726346
vt 0.710986 0.789062
vt 0.853458 0.064083
vt 0.171924 0.773438
vt 0.499440 0.320312
vt 0.630058 0.327715
vt 0.630058 0.372644
vt 0.047516 0.726346
vt 0.047515 0.070348
vt 0.630058 0.064083
vt 0.499440 0.375000
vt 0.233707 0.070348
vt 0.710986 0.953125
vt 0.492131 0.109354
vt 0.630058 0.109012
vt 0.082955 0.070348
vt 0.082955 0.726346
vt 0.171924 0.929688
vt 0.853458 0.282786
vt 0.171924 0.882812
vt 0.710986 0.843750
vt 0.122952 0.726346
vt 0.122952 0.070348
vt 0.227491 0.500000
vt 0.226737 0.062983
vt 0.491160 0.375000
vt 0.718750 0.946241
vt 0.484076 0.109352
vt 0.227491 0.343750
vt 0.226737 0.188964
vt 0.046875 0.780321
vt 0.280321 0.757812
vt 0.227491 0.453125
vt 0.226737 0.733667
vt 0.483839 0.062500
vt 0.179688 0.780321
vt 0.491160 0.320312
vt 0.227491 0.296875
vt 0.226737 0.608428
vt 0.280321 0.984375
vt 0.585938 0.946241
vt 0.226737 0.726346
vt 0.171924 0.780321
vt 0.710986 0.946241
vt 0.226737 0.070348
s 0
f 91/176/1 11/22/1 4/7/1 85/167/1
f 98/185/2 105/196/2 20/39/2 6/13/2
f 112/204/3 98/184/3 6/12/3 87/171/3
f 14/27/4 23/47/4 24/48/4 13/25/4
f 97/183/4 103/192/4 18/35/4 1/2/4
f 87/170/5 6/13/5 20/39/5 83/164/5
f 99/187/2 104/194/2 2/3/2 19/37/2
f 89/174/6 15/30/6 8/16/6 86/169/6
f 88/173/5 19/37/5 2/3/5 81/159/5
f 100/188/4 106/197/4 5/11/4 17/33/4
f 100/188/4 17/33/4 18/35/4 103/192/4
f 29/58/5 18/36/5 17/34/5 30/61/5
f 31/63/6 14/28/6 13/26/6 32/64/6
f 85/166/6 4/8/6 16/32/6 84/165/6
f 16/31/7 21/41/7 22/45/7 15/29/7
f 14/27/4 7/14/4 10/21/4 23/47/4
f 16/31/7 4/9/7 11/23/7 21/41/7
f 3/6/4 13/25/4 24/48/4 12/24/4
f 86/168/3 8/17/3 9/19/3 90/175/3
f 8/18/7 15/29/7 22/45/7 9/20/7
f 95/181/1 40/77/1 11/22/1 91/176/1
f 37/73/1 45/85/1 34/66/1 12/24/1
f 7/14/3 27/53/3 33/65/3 10/21/3
f 3/5/6 26/51/6 32/64/6 13/26/6
f 89/174/6 31/63/6 32/64/6 84/165/6
f 111/203/3 88/172/3 29/57/3 108/200/3
f 18/36/5 29/58/5 25/49/5 1/1/5
f 14/28/6 31/63/6 27/54/6 7/15/6
f 5/10/5 28/55/5 30/61/5 17/34/5
f 106/197/3 101/189/3 28/56/3 5/11/3
f 12/24/1 34/66/1 26/52/1 3/6/1
f 110/202/1 83/163/1 20/40/1 105/195/1
f 92/178/5 82/162/5 35/67/5 36/70/5
f 48/89/7 36/71/7 35/68/7 47/87/7
f 102/191/7 48/89/7 47/87/7 108/199/7
f 92/177/1 93/179/1 41/79/1 22/44/1
f 10/21/3 33/65/3 46/86/3 42/81/3
f 82/161/3 94/180/3 47/88/3 35/69/3
f 97/183/1 107/198/1 45/85/1 37/73/1
f 109/201/1 104/193/1 40/77/1 95/181/1
f 23/47/4 44/84/4 38/74/4 24/48/4
f 23/47/4 10/21/4 42/81/4 44/84/4
f 21/41/8 11/23/8 40/78/8 43/83/8
f 12/24/4 24/48/4 38/74/4 37/73/4
f 90/175/3 9/19/3 39/75/3 96/182/3
f 9/20/8 22/45/8 41/80/8 39/76/8
f 54/103/7 56/107/7 55/106/7 53/102/7
f 50/93/9 52/98/9 67/131/9 70/137/9
f 65/127/10 72/141/10 53/101/10 55/105/10
f 72/142/11 69/136/11 54/103/11 53/102/11
f 68/134/12 65/128/12 55/106/12 56/107/12
f 49/92/13 50/94/13 70/138/13 71/140/13
f 51/95/14 49/91/14 71/139/14 66/129/14
f 69/135/15 68/133/15 56/108/15 54/104/15
f 50/94/4 49/92/4 51/96/4 52/99/4
f 58/111/6 60/116/6 59/113/6 57/109/6
f 62/122/5 61/120/5 63/124/5 64/125/5
f 58/111/16 57/109/16 78/154/16 74/145/16
f 60/117/17 58/112/17 74/146/17 75/148/17
f 77/151/18 80/157/18 63/123/18 61/119/18
f 57/110/19 59/114/19 79/155/19 78/153/19
f 80/158/20 76/149/20 64/125/20 63/124/20
f 59/115/21 60/118/21 75/147/21 79/156/21
f 76/150/22 73/143/22 62/121/22 64/126/22
f 72/141/1 65/127/1 66/129/1 71/139/1
f 68/133/3 69/135/3 70/137/3 67/131/3
f 69/136/5 72/142/5 71/140/5 70/138/5
f 65/128/6 68/134/6 67/132/6 66/130/6
f 52/100/23 51/97/23 66/130/23 67/132/23
f 80/157/1 77/151/1 78/153/1 79/155/1
f 76/149/4 80/158/4 79/156/4 75/147/4
f 77/152/7 73/144/7 74/145/7 78/154/7
f 73/143/3 76/150/3 75/148/3 74/146/3
f 73/144/24 77/152/24 61/120/24 62/122/24
f 33/65/3 90/175/3 96/182/3 46/86/3
f 107/198/1 109/201/1 95/181/1 45/85/1
f 21/42/3 43/82/3 94/180/3 82/161/3
f 36/72/1 48/90/1 93/179/1 92/177/1
f 22/46/5 21/43/5 82/162/5 92/178/5
f 102/190/1 30/60/1 83/163/1 110/202/1
f 99/186/3 19/38/3 88/172/3 111/203/3
f 15/30/6 89/174/6 84/165/6 16/32/6
f 45/85/1 95/181/1 91/176/1 34/66/1
f 27/53/3 86/168/3 90/175/3 33/65/3
f 26/51/6 85/166/6 84/165/6 32/64/6
f 29/58/5 88/173/5 81/159/5 25/49/5
f 31/63/6 89/174/6 86/169/6 27/54/6
f 28/55/5 87/170/5 83/164/5 30/61/5
f 101/189/3 112/204/3 87/171/3 28/56/3
f 34/66/1 91/176/1 85/167/1 26/52/1
f 46/86/3 96/182/3 112/204/3 101/189/3
f 43/82/3 99/186/3 111/203/3 94/180/3
f 48/90/1 102/190/1 110/202/1 93/179/1
f 25/50/1 81/160/1 109/201/1 107/198/1
f 81/160/1 2/4/1 104/193/1 109/201/1
f 1/2/1 25/50/1 107/198/1 97/183/1
f 30/62/7 102/191/7 108/199/7 29/59/7
f 93/179/1 110/202/1 105/195/1 41/79/1
f 42/81/3 46/86/3 101/189/3 106/197/3
f 94/180/3 111/203/3 108/200/3 47/88/3
f 44/84/4 100/188/4 103/192/4 38/74/4
f 44/84/4 42/81/4 106/197/4 100/188/4
f 43/83/2 40/78/2 104/194/2 99/187/2
f 37/73/4 38/74/4 103/192/4 97/183/4
f 96/182/3 39/75/3 98/184/3 112/204/3
f 39/76/2 41/80/2 105/196/2 98/185/2
