# Blender 3.3.1
# www.blender.org
o Plano.001
v -0.545192 0.735461 -0.980042
v -0.171646 0.361915 -0.980042
v -0.207409 0.361915 -0.980042
v -0.207409 1.073244 -0.980042
v -0.171646 1.073244 -0.980042
v -0.171646 0.361915 -0.950041
v -0.207409 0.361915 -0.950041
v -0.207409 1.073244 -0.950041
v -0.171646 1.073244 -0.950041
v -0.545192 0.699698 -0.950041
v -0.545192 0.735461 -0.950041
v 0.166137 0.735461 -0.950041
v 0.166137 0.699698 -0.950041
v -0.545192 0.699698 -0.980042
v 0.166137 0.699698 -0.980042
v 0.166137 0.735461 -0.980042
v -0.220483 0.699698 -0.980042
v -0.207409 0.686623 -0.980042
v -0.194335 0.699698 -0.980042
v -0.207409 0.712772 -0.980042
v -0.207409 0.748535 -0.980042
v -0.220483 0.735461 -0.980042
v -0.207409 0.722387 -0.980042
v -0.194335 0.735461 -0.980042
v -0.158571 0.735461 -0.980042
v -0.171646 0.748535 -0.980042
v -0.184720 0.735461 -0.980042
v -0.171646 0.722387 -0.980042
v -0.171646 0.686623 -0.980042
v -0.158571 0.699698 -0.980042
v -0.171646 0.712772 -0.980042
v -0.184720 0.699698 -0.980042
v -0.171646 0.748535 -0.950041
v -0.158571 0.735461 -0.950041
v -0.171646 0.722387 -0.950041
v -0.184720 0.735461 -0.950041
v -0.220483 0.735461 -0.950041
v -0.207409 0.748535 -0.950041
v -0.194335 0.735461 -0.950041
v -0.207409 0.722387 -0.950041
v -0.207409 0.686623 -0.950041
v -0.220483 0.699698 -0.950041
v -0.207409 0.712772 -0.950041
v -0.194335 0.699698 -0.950041
v -0.158571 0.699698 -0.950041
v -0.171646 0.686623 -0.950041
v -0.184720 0.699698 -0.950041
v -0.171646 0.712772 -0.950041
vn -0.0000 1.0000 -0.0000
vn 1.0000 -0.0000 -0.0000
vn -0.0000 -0.0000 1.0000
vn -1.0000 -0.0000 -0.0000
vn -0.0000 -0.0000 -1.0000
vn -0.0000 -1.0000 -0.0000
vn -0.7071 -0.7071 -0.0000
vn -0.7071 0.7071 -0.0000
vn 0.7071 0.7071 -0.0000
vn 0.7071 -0.7071 -0.0000
vt 0.005383 0.997078
vt 0.005383 0.997078
vt 0.005383 0.997078
vt 0.005383 0.997078
vt 0.005383 0.997078
vt 0.005383 0.997078
vt 0.005383 0.997078
vt 0.005383 0.997078
vt 0.005383 0.997078
vt 0.005383 0.997078
vt 0.005383 0.997078
vt 0.005383 0.997078
vt 0.005383 0.997078
vt 0.005383 0.997078
vt 0.005383 0.997078
vt 0.005383 0.997078
vt 0.005383 0.997078
vt 0.005383 0.997078
vt 0.005383 0.997078
vt 0.005383 0.997078
vt 0.005383 0.997078
vt 0.005383 0.997078
vt 0.005383 0.997078
vt 0.005383 0.997078
vt 0.005383 0.997078
vt 0.005383 0.997078
vt 0.005383 0.997078
vt 0.005383 0.997078
vt 0.005383 0.997078
vt 0.005383 0.997078
vt 0.005383 0.997078
vt 0.005383 0.997078
vt 0.005383 0.997078
vt 0.005383 0.997078
vt 0.005383 0.997078
vt 0.005383 0.997078
vt 0.005383 0.997078
vt 0.005383 0.997078
vt 0.005383 0.997078
vt 0.005383 0.997078
vt 0.005383 0.997078
vt 0.005383 0.997078
vt 0.005383 0.997078
vt 0.005383 0.997078
vt 0.005383 0.997078
vt 0.005383 0.997078
vt 0.005383 0.997078
vt 0.005383 0.997078
s 0
f 45/45/1 13/13/1 15/15/1 30/30/1
f 41/41/2 7/7/2 3/3/2 18/18/2
f 28/28/3 27/27/3 24/24/3 23/23/3 20/20/3 19/19/3 32/32/3 31/31/3
f 33/33/4 9/9/4 5/5/4 26/26/4
f 33/33/5 36/36/5 39/39/5 38/38/5 8/8/5 9/9/5
f 37/37/5 40/40/5 43/43/5 42/42/5 10/10/5 11/11/5
f 6/6/5 7/7/5 41/41/5 44/44/5 47/47/5 46/46/5
f 36/36/5 35/35/5 48/48/5 47/47/5 44/44/5 43/43/5 40/40/5 39/39/5
f 23/23/3 22/22/3 1/1/3 14/14/3 17/17/3 20/20/3
f 7/7/1 6/6/1 2/2/1 3/3/1
f 16/16/3 25/25/3 28/28/3 31/31/3 30/30/3 15/15/3
f 12/12/6 34/34/6 25/25/6 16/16/6
f 11/11/2 10/10/2 14/14/2 1/1/2
f 12/12/5 13/13/5 45/45/5 48/48/5 35/35/5 34/34/5
f 6/6/4 46/46/4 29/29/4 2/2/4
f 9/9/6 8/8/6 4/4/6 5/5/6
f 2/2/3 29/29/3 32/32/3 19/19/3 18/18/3 3/3/3
f 37/37/6 11/11/6 1/1/6 22/22/6
f 27/27/3 26/26/3 5/5/3 4/4/3 21/21/3 24/24/3
f 13/13/4 12/12/4 16/16/4 15/15/4
f 8/8/2 38/38/2 21/21/2 4/4/2
f 17/17/3 18/18/3 19/19/3 20/20/3
f 21/21/3 22/22/3 23/23/3 24/24/3
f 25/25/3 26/26/3 27/27/3 28/28/3
f 29/29/3 30/30/3 31/31/3 32/32/3
f 33/33/5 34/34/5 35/35/5 36/36/5
f 37/37/5 38/38/5 39/39/5 40/40/5
f 41/41/5 42/42/5 43/43/5 44/44/5
f 45/45/5 46/46/5 47/47/5 48/48/5
f 33/33/7 26/26/7 25/25/7 34/34/7
f 45/45/8 30/30/8 29/29/8 46/46/8
f 41/41/9 18/18/9 17/17/9 42/42/9
f 37/37/10 22/22/10 21/21/10 38/38/10
f 10/10/1 42/42/1 17/17/1 14/14/1
