# Blender 3.3.1
# www.blender.org
o Plano.001
v -0.545192 0.735461 -0.980042
v -0.171646 0.361915 -0.980042
v -0.207409 0.361915 -0.980042
v -0.207409 1.073244 -0.980042
v -0.171646 1.073244 -0.980042
v -0.171646 0.361915 -0.950041
v -0.207409 0.361915 -0.950041
v -0.207409 1.073244 -0.950041
v -0.171646 1.073244 -0.950041
v -0.545192 0.699698 -0.950041
v -0.545192 0.735461 -0.950041
v 0.166137 0.735461 -0.950041
v 0.166137 0.699698 -0.950041
v -0.545192 0.699698 -0.980042
v 0.166137 0.699698 -0.980042
v 0.166137 0.735461 -0.980042
v -0.220483 0.699698 -0.980042
v -0.207409 0.686623 -0.980042
v -0.194335 0.699698 -0.980042
v -0.207409 0.712772 -0.980042
v -0.207409 0.748535 -0.980042
v -0.220483 0.735461 -0.980042
v -0.207409 0.722387 -0.980042
v -0.194335 0.735461 -0.980042
v -0.158571 0.735461 -0.980042
v -0.171646 0.748535 -0.980042
v -0.184720 0.735461 -0.980042
v -0.171646 0.722387 -0.980042
v -0.171646 0.686623 -0.980042
v -0.158571 0.699698 -0.980042
v -0.171646 0.712772 -0.980042
v -0.184720 0.699698 -0.980042
v -0.171646 0.748535 -0.950041
v -0.158571 0.735461 -0.950041
v -0.171646 0.722387 -0.950041
v -0.184720 0.735461 -0.950041
v -0.220483 0.735461 -0.950041
v -0.207409 0.748535 -0.950041
v -0.194335 0.735461 -0.950041
v -0.207409 0.722387 -0.950041
v -0.207409 0.686623 -0.950041
v -0.220483 0.699698 -0.950041
v -0.207409 0.712772 -0.950041
v -0.194335 0.699698 -0.950041
v -0.158571 0.699698 -0.950041
v -0.171646 0.686623 -0.950041
v -0.184720 0.699698 -0.950041
v -0.171646 0.712772 -0.950041
vn -0.0000 -1.0000 -0.0000
vn -1.0000 -0.0000 -0.0000
vn -0.0000 -0.0000 -1.0000
vn 1.0000 -0.0000 -0.0000
vn -0.0000 -0.0000 1.0000
vn -0.0000 1.0000 -0.0000
vn 0.7071 0.7071 -0.0000
vn 0.7071 -0.7071 -0.0000
vn -0.7071 -0.7071 -0.0000
vn -0.7071 0.7071 -0.0000
vt 0.265877 0.496068
vt 0.443506 0.323104
vt 0.383683 0.653360
vt 0.443506 0.394418
vt 0.398638 0.323104
vt 0.008682 0.753263
vt 0.428550 0.491491
vt 0.443506 0.376589
vt 0.008682 0.728639
vt 0.443506 0.376589
vt 0.498449 0.728639
vt 0.398639 0.491491
vt 0.383683 0.491491
vt 0.443506 0.358761
vt 0.498449 0.753263
vt 0.022036 0.230923
vt 0.428550 0.394418
vt 0.383683 0.323104
vt 0.413594 0.491491
vt 0.022036 0.253453
vt 0.428550 0.376589
vt 0.470152 0.253453
vt 0.428550 0.376589
vt 0.413594 0.491491
vt 0.368727 0.491491
vt 0.470152 0.230923
vt 0.428550 0.358761
vt 0.234829 0.466246
vt 0.428550 0.340933
vt 0.413594 0.491491
vt 0.257359 0.466246
vt 0.428550 0.323104
vt 0.368727 0.653360
vt 0.398639 0.491491
vt 0.257359 0.018130
vt 0.443506 0.340933
vt 0.383683 0.653360
vt 0.234829 0.018130
vt 0.443506 0.358761
vt 0.241253 0.496068
vt 0.443506 0.340933
vt 0.428550 0.491491
vt 0.398638 0.653360
vt 0.241253 0.985835
vt 0.428550 0.358761
vt 0.265877 0.985835
vt 0.413594 0.491491
vt 0.428550 0.340933
vt 0.241253 0.719637
vt 0.428550 0.323104
vt 0.428550 0.653360
vt 0.232251 0.728639
vt 0.428550 0.329622
vt 0.241253 0.737641
vt 0.250255 0.728639
vt 0.274879 0.728639
vt 0.398639 0.329622
vt 0.383683 0.491491
vt 0.265877 0.719638
vt 0.398639 0.323104
vt 0.256876 0.728639
vt 0.265877 0.737641
vt 0.413594 0.653360
vt 0.265877 0.762265
vt 0.383683 0.323104
vt 0.274879 0.753263
vt 0.383683 0.329622
vt 0.265877 0.744262
vt 0.256876 0.753263
vt 0.232251 0.753263
vt 0.398639 0.484974
vt 0.241253 0.762265
vt 0.398639 0.491491
vt 0.250255 0.753263
vt 0.241253 0.744262
vt 0.265595 0.230923
vt 0.368727 0.329622
vt 0.398639 0.653360
vt 0.257359 0.222686
vt 0.368727 0.323104
vt 0.249122 0.230923
vt 0.257359 0.239159
vt 0.368727 0.491491
vt 0.257359 0.261689
vt 0.413594 0.323104
vt 0.265595 0.253453
vt 0.413594 0.329622
vt 0.257359 0.245216
vt 0.249122 0.253453
vt 0.226592 0.253453
vt 0.413594 0.329622
vt 0.234829 0.261689
vt 0.413594 0.323104
vt 0.413594 0.653360
vt 0.243065 0.253453
vt 0.234829 0.245216
vt 0.234829 0.222686
vt 0.383683 0.491491
vt 0.226592 0.230923
vt 0.383683 0.484974
vt 0.234829 0.239159
vt 0.243065 0.230923
s 0
f 45/98/1 30/73/1 15/43/1 13/37/1
f 41/91/2 18/53/2 3/7/2 7/19/2
f 28/69/3 31/74/3 32/75/3 19/54/3 20/55/3 23/61/3 24/62/3 27/68/3
f 33/77/4 26/67/4 5/13/4 9/25/4
f 33/76/5 9/26/5 8/22/5 38/86/5 39/88/5 36/82/5
f 37/84/5 11/31/5 10/28/5 42/92/5 43/95/5 40/89/5
f 6/16/5 46/99/5 47/101/5 44/96/5 41/90/5 7/20/5
f 36/82/5 39/88/5 40/89/5 43/95/5 44/96/5 47/101/5 48/102/5 35/81/5
f 23/61/3 20/55/3 17/49/3 14/40/3 1/1/3 22/59/3
f 7/21/1 3/8/1 2/4/1 6/17/1
f 16/46/3 15/44/3 30/72/3 31/74/3 28/69/3 25/64/3
f 12/34/6 16/47/6 25/63/6 34/78/6
f 11/32/2 1/2/2 14/41/2 10/29/2
f 12/35/5 34/79/5 35/81/5 48/102/5 45/97/5 13/38/5
f 6/18/4 2/5/4 29/71/4 46/100/4
f 9/27/6 5/14/6 4/10/6 8/23/6
f 2/6/3 3/9/3 18/52/3 19/54/3 32/75/3 29/70/3
f 37/83/6 22/58/6 1/3/6 11/33/6
f 27/68/3 24/62/3 21/56/3 4/11/3 5/15/3 26/66/3
f 13/39/4 15/45/4 16/48/4 12/36/4
f 8/24/2 4/12/2 21/57/2 38/87/2
f 17/49/3 20/55/3 19/54/3 18/52/3
f 21/56/3 24/62/3 23/61/3 22/59/3
f 25/64/3 28/69/3 27/68/3 26/66/3
f 29/70/3 32/75/3 31/74/3 30/72/3
f 33/76/5 36/82/5 35/81/5 34/79/5
f 37/84/5 40/89/5 39/88/5 38/86/5
f 41/90/5 44/96/5 43/95/5 42/92/5
f 45/97/5 48/102/5 47/101/5 46/99/5
f 33/77/7 34/80/7 25/65/7 26/67/7
f 45/98/8 46/100/8 29/71/8 30/73/8
f 41/91/9 42/93/9 17/50/9 18/53/9
f 37/85/10 38/87/10 21/57/10 22/60/10
f 10/30/1 14/42/1 17/51/1 42/94/1
